<svg version="1.1" xmlns="http://www.w3.org/2000/svg" viewBox="0 0 1020 3583.3334350585938" width="1020" height="3583.3334350585938">
  <!-- svg-source:excalidraw -->
  
  <defs>
    <style class="style-fonts">
      @font-face {
        font-family: "Virgil";
        src: url("https://file%2B.vscode-resource.vscode-cdn.net/c%3A/Users/aradh/.vscode/extensions/pomdtr.excalidraw-editor-3.7.1/public//dist/excalidraw-assets/Virgil.woff2");
      }
      @font-face {
        font-family: "Cascadia";
        src: url("https://file%2B.vscode-resource.vscode-cdn.net/c%3A/Users/aradh/.vscode/extensions/pomdtr.excalidraw-editor-3.7.1/public//dist/excalidraw-assets/Cascadia.woff2");
      }
      @font-face {
        font-family: "Assistant";
        src: url("https://file%2B.vscode-resource.vscode-cdn.net/c%3A/Users/aradh/.vscode/extensions/pomdtr.excalidraw-editor-3.7.1/public//dist/excalidraw-assets/Assistant-Regular.woff2");
      }
    </style>
    
  </defs>
  <rect x="0" y="0" width="1020" height="3583.3334350585938" fill="#ffffff"></rect><g stroke-linecap="round" transform="translate(10 9.999999999999943) rotate(0 500 1781.6667175292969)"><path d="M0 0 C362.12 -1.73, 723.01 -0.78, 1000 0 M0 0 C377.52 -1.5, 755.11 -1.69, 1000 0 M1000 0 C1004.23 1191.14, 1004.13 2380.87, 1000 3563.33 M1000 0 C1009.22 944.17, 1008.97 1887.39, 1000 3563.33 M1000 3563.33 C616.43 3563.52, 233.56 3564.11, 0 3563.33 M1000 3563.33 C759.32 3564.37, 519.14 3564.19, 0 3563.33 M0 3563.33 C-7.53 2477.07, -8.66 1391.02, 0 0 M0 3563.33 C-1.67 2497.18, -1.49 1431.35, 0 0" stroke="#1e1e1e" stroke-width="2" fill="none"></path></g><g stroke-linecap="round" transform="translate(12.122706547912003 15.092140338027917) rotate(0 498.938646726044 53.50853959502449)"><path d="M0 0 C299.82 3.95, 599.88 4.1, 997.88 0 M0 0 C231.46 -0.73, 463.54 -0.09, 997.88 0 M997.88 0 C997.17 28.31, 998.36 54.59, 997.88 107.02 M997.88 0 C997.65 29.68, 997.32 61.13, 997.88 107.02 M997.88 107.02 C630.69 103.92, 263.97 103.83, 0 107.02 M997.88 107.02 C696.82 110.91, 395.11 111.23, 0 107.02 M0 107.02 C-1.44 83.76, 0.52 58.82, 0 0 M0 107.02 C-0.71 67.56, -0.1 25.98, 0 0" stroke="#1e1e1e" stroke-width="2" fill="none"></path></g><g stroke-linecap="round" transform="translate(21.799866575009275 24.199965222029178) rotate(0 54.58274941677709 46.245449944892236)"><path d="M109.17 46.25 C109.17 48.26, 109.01 50.29, 108.7 52.28 C108.39 54.28, 107.92 56.27, 107.31 58.21 C106.69 60.16, 105.92 62.08, 105.01 63.94 C104.1 65.8, 103.04 67.63, 101.85 69.37 C100.67 71.11, 99.33 72.8, 97.89 74.4 C96.44 75.99, 94.86 77.52, 93.18 78.95 C91.5 80.37, 89.69 81.71, 87.81 82.93 C85.93 84.16, 83.93 85.29, 81.87 86.3 C79.82 87.3, 77.66 88.2, 75.47 88.97 C73.28 89.74, 71 90.39, 68.71 90.92 C66.42 91.44, 64.06 91.83, 61.71 92.1 C59.35 92.36, 56.96 92.49, 54.58 92.49 C52.21 92.49, 49.81 92.36, 47.46 92.1 C45.1 91.83, 42.75 91.44, 40.46 90.92 C38.16 90.39, 35.89 89.74, 33.69 88.97 C31.5 88.2, 29.35 87.3, 27.29 86.3 C25.23 85.29, 23.24 84.16, 21.35 82.93 C19.47 81.71, 17.67 80.37, 15.99 78.95 C14.31 77.52, 12.73 75.99, 11.28 74.4 C9.83 72.8, 8.5 71.11, 7.31 69.37 C6.13 67.63, 5.06 65.8, 4.15 63.94 C3.25 62.08, 2.47 60.16, 1.86 58.21 C1.25 56.27, 0.78 54.28, 0.47 52.28 C0.16 50.29, 0 48.26, 0 46.25 C0 44.23, 0.16 42.2, 0.47 40.21 C0.78 38.21, 1.25 36.22, 1.86 34.28 C2.47 32.33, 3.25 30.41, 4.15 28.55 C5.06 26.69, 6.13 24.87, 7.31 23.12 C8.5 21.38, 9.83 19.69, 11.28 18.09 C12.73 16.5, 14.31 14.97, 15.99 13.54 C17.67 12.12, 19.47 10.78, 21.35 9.56 C23.24 8.33, 25.23 7.2, 27.29 6.2 C29.35 5.19, 31.5 4.29, 33.69 3.52 C35.89 2.75, 38.16 2.1, 40.46 1.58 C42.75 1.06, 45.1 0.66, 47.46 0.4 C49.81 0.13, 52.21 0, 54.58 0 C56.96 0, 59.35 0.13, 61.71 0.4 C64.06 0.66, 66.42 1.06, 68.71 1.58 C71 2.1, 73.28 2.75, 75.47 3.52 C77.66 4.29, 79.82 5.19, 81.87 6.2 C83.93 7.2, 85.93 8.33, 87.81 9.56 C89.69 10.78, 91.5 12.12, 93.18 13.54 C94.86 14.97, 96.44 16.5, 97.89 18.09 C99.33 19.69, 100.67 21.38, 101.85 23.12 C103.04 24.87, 104.1 26.69, 105.01 28.55 C105.92 30.41, 106.69 32.33, 107.31 34.28 C107.92 36.22, 108.39 38.21, 108.7 40.21 C109.01 42.2, 109.09 45.24, 109.17 46.25 C109.24 47.25, 109.24 45.24, 109.17 46.25" stroke="#1e1e1e" stroke-width="2" fill="none"></path></g><g transform="translate(46.156961966033464 50.12189233862722) rotate(0 30.12982177734375 20.123051573237845)"><text x="30.12982177734375" y="0" font-family="Virgil, Segoe UI Emoji" font-size="32.19688251718055px" fill="#1e1e1e" text-anchor="middle" style="white-space: pre;" direction="ltr" dominant-baseline="text-before-edge">logo</text></g><g transform="translate(259.92433772156267 60.504188999148994) rotate(0 221.47573852539057 13.823869498269062)"><text x="0" y="0" font-family="Virgil, Segoe UI Emoji" font-size="22.118191197230505px" fill="#1e1e1e" text-anchor="start" style="white-space: pre;" direction="ltr" dominant-baseline="text-before-edge">Home   Team  About   Events   Gallery</text></g><g stroke-linecap="round" transform="translate(796.5009397507033 46.90004236620129) rotate(0 98.40593463942514 20.87397648376887)"><path d="M10.44 0 C50.07 0, 89.7 0, 186.37 0 M10.44 0 C57.48 0, 104.52 0, 186.37 0 M186.37 0 C193.33 0, 196.81 3.48, 196.81 10.44 M186.37 0 C193.33 0, 196.81 3.48, 196.81 10.44 M196.81 10.44 C196.81 16.76, 196.81 23.08, 196.81 31.31 M196.81 10.44 C196.81 15.33, 196.81 20.21, 196.81 31.31 M196.81 31.31 C196.81 38.27, 193.33 41.75, 186.37 41.75 M196.81 31.31 C196.81 38.27, 193.33 41.75, 186.37 41.75 M186.37 41.75 C145.53 41.75, 104.68 41.75, 10.44 41.75 M186.37 41.75 C121.57 41.75, 56.77 41.75, 10.44 41.75 M10.44 41.75 C3.48 41.75, 0 38.27, 0 31.31 M10.44 41.75 C3.48 41.75, 0 38.27, 0 31.31 M0 31.31 C0 27.06, 0 22.81, 0 10.44 M0 31.31 C0 27.12, 0 22.93, 0 10.44 M0 10.44 C0 3.48, 3.48 0, 10.44 0 M0 10.44 C0 3.48, 3.48 0, 10.44 0" stroke="#1e1e1e" stroke-width="2" fill="none"></path></g><g transform="translate(785.7160083862395 56.02744258370632) rotate(0 72.61955261230469 13.831799123193974)"><text x="0" y="0" font-family="Virgil, Segoe UI Emoji" font-size="22.13087859711037px" fill="#1e1e1e" text-anchor="start" style="white-space: pre;" direction="ltr" dominant-baseline="text-before-edge">Subscribe now</text></g><g transform="translate(258.42732331088985 157.83856718560818) rotate(0 261.4446411132812 64.89148646933724)"><text x="0" y="0" font-family="Virgil, Segoe UI Emoji" font-size="51.91318917546979px" fill="#1e1e1e" text-anchor="start" style="white-space: pre;" direction="ltr" dominant-baseline="text-before-edge">Student Technical &amp;</text><text x="0" y="64.89148646933724" font-family="Virgil, Segoe UI Emoji" font-size="51.91318917546979px" fill="#1e1e1e" text-anchor="start" style="white-space: pre;" direction="ltr" dominant-baseline="text-before-edge">Innovation Club</text></g><g transform="translate(366.9225150125653 291.38734798782787) rotate(0 116.35592651367188 12.930790215641764)"><text x="0" y="0" font-family="Virgil, Segoe UI Emoji" font-size="20.689264345026803px" fill="#868e96" text-anchor="start" style="white-space: pre;" direction="ltr" dominant-baseline="text-before-edge">**A nice quote here** </text></g><g stroke-linecap="round" transform="translate(510.064334065348 421.0706239437784) rotate(0 107.14459034134097 23.198942776846593)"><path d="M11.6 0 C70.39 0, 129.19 0, 202.69 0 M11.6 0 C50.35 0, 89.11 0, 202.69 0 M202.69 0 C210.42 0, 214.29 3.87, 214.29 11.6 M202.69 0 C210.42 0, 214.29 3.87, 214.29 11.6 M214.29 11.6 C214.29 17.28, 214.29 22.96, 214.29 34.8 M214.29 11.6 C214.29 16.63, 214.29 21.65, 214.29 34.8 M214.29 34.8 C214.29 42.53, 210.42 46.4, 202.69 46.4 M214.29 34.8 C214.29 42.53, 210.42 46.4, 202.69 46.4 M202.69 46.4 C148.34 46.4, 93.99 46.4, 11.6 46.4 M202.69 46.4 C133.7 46.4, 64.7 46.4, 11.6 46.4 M11.6 46.4 C3.87 46.4, 0 42.53, 0 34.8 M11.6 46.4 C3.87 46.4, 0 42.53, 0 34.8 M0 34.8 C0 29.74, 0 24.68, 0 11.6 M0 34.8 C0 27.76, 0 20.71, 0 11.6 M0 11.6 C0 3.87, 3.87 0, 11.6 0 M0 11.6 C0 3.87, 3.87 0, 11.6 0" stroke="#1e1e1e" stroke-width="2" fill="none"></path></g><g transform="translate(590.5266581713374 431.37626644241266) rotate(0 26.682266235351562 12.89330027821228)"><text x="26.682266235351562" y="0" font-family="Virgil, Segoe UI Emoji" font-size="20.629280445139663px" fill="#1e1e1e" text-anchor="middle" style="white-space: pre;" direction="ltr" dominant-baseline="text-before-edge">Blogs</text></g><g transform="translate(13.733605565285814 174.42780988987306) rotate(329.829549645589 93.37072753906253 23.00707443413569)"><text x="0" y="0" font-family="Virgil, Segoe UI Emoji" font-size="18.40565954730854px" fill="#868e96" text-anchor="start" style="white-space: pre;" direction="ltr" dominant-baseline="text-before-edge">**A great bakground</text><text x="0" y="23.007074434135678" font-family="Virgil, Segoe UI Emoji" font-size="18.40565954730854px" fill="#868e96" text-anchor="start" style="white-space: pre;" direction="ltr" dominant-baseline="text-before-edge">Gradient here**</text></g><g stroke-linecap="round" transform="translate(281.3763859692415 422.3410349998418) rotate(0 107.14459034134097 23.198942776846593)"><path d="M11.6 0 C66.26 0, 120.92 0, 202.69 0 M11.6 0 C58.35 0, 105.11 0, 202.69 0 M202.69 0 C210.42 0, 214.29 3.87, 214.29 11.6 M202.69 0 C210.42 0, 214.29 3.87, 214.29 11.6 M214.29 11.6 C214.29 17.45, 214.29 23.31, 214.29 34.8 M214.29 11.6 C214.29 18.63, 214.29 25.66, 214.29 34.8 M214.29 34.8 C214.29 42.53, 210.42 46.4, 202.69 46.4 M214.29 34.8 C214.29 42.53, 210.42 46.4, 202.69 46.4 M202.69 46.4 C127.57 46.4, 52.46 46.4, 11.6 46.4 M202.69 46.4 C142.14 46.4, 81.6 46.4, 11.6 46.4 M11.6 46.4 C3.87 46.4, 0 42.53, 0 34.8 M11.6 46.4 C3.87 46.4, 0 42.53, 0 34.8 M0 34.8 C0 25.76, 0 16.73, 0 11.6 M0 34.8 C0 28.38, 0 21.96, 0 11.6 M0 11.6 C0 3.87, 3.87 0, 11.6 0 M0 11.6 C0 3.87, 3.87 0, 11.6 0" stroke="#1e1e1e" stroke-width="2" fill="none"></path></g><g transform="translate(354.30210424026995 432.64667749847604) rotate(0 34.2188720703125 12.89330027821228)"><text x="34.2188720703125" y="0" font-family="Virgil, Segoe UI Emoji" font-size="20.629280445139663px" fill="#1e1e1e" text-anchor="middle" style="white-space: pre;" direction="ltr" dominant-baseline="text-before-edge">Events</text></g><g transform="translate(855.4379510057774 207.47989654306667) rotate(329.829549645589 67.64300537109375 16.67300984333488)"><text x="0" y="0" font-family="Virgil, Segoe UI Emoji" font-size="13.3384078746679px" fill="#868e96" text-anchor="start" style="white-space: pre;" direction="ltr" dominant-baseline="text-before-edge">**A great bakground</text><text x="0" y="16.673009843334874" font-family="Virgil, Segoe UI Emoji" font-size="13.3384078746679px" fill="#868e96" text-anchor="start" style="white-space: pre;" direction="ltr" dominant-baseline="text-before-edge">Gradient here**</text></g><g stroke-linecap="round"><g transform="translate(490 512.222239) rotate(0 23.813523307050673 11.496171351665225)"><path d="M0 0 C3.97 3.83, 15.88 22.58, 23.81 22.99 C31.75 23.4, 43.66 5.88, 47.63 2.46 M0 0 C3.97 3.83, 15.88 22.58, 23.81 22.99 C31.75 23.4, 43.66 5.88, 47.63 2.46" stroke="#1e1e1e" stroke-width="2" fill="none"></path></g></g><mask></mask><g stroke-linecap="round" transform="translate(268.6715775083728 357.9696254968684) rotate(0 228.68802564057648 23.979554267910487)"><path d="M11.99 0 C102.73 0, 193.48 0, 445.39 0 M11.99 0 C105.46 0, 198.93 0, 445.39 0 M445.39 0 C453.38 0, 457.38 4, 457.38 11.99 M445.39 0 C453.38 0, 457.38 4, 457.38 11.99 M457.38 11.99 C457.38 21.1, 457.38 30.22, 457.38 35.97 M457.38 11.99 C457.38 21.48, 457.38 30.97, 457.38 35.97 M457.38 35.97 C457.38 43.96, 453.38 47.96, 445.39 47.96 M457.38 35.97 C457.38 43.96, 453.38 47.96, 445.39 47.96 M445.39 47.96 C320.16 47.96, 194.94 47.96, 11.99 47.96 M445.39 47.96 C305.72 47.96, 166.05 47.96, 11.99 47.96 M11.99 47.96 C4 47.96, 0 43.96, 0 35.97 M11.99 47.96 C4 47.96, 0 43.96, 0 35.97 M0 35.97 C0 29.49, 0 23.01, 0 11.99 M0 35.97 C0 29.19, 0 22.42, 0 11.99 M0 11.99 C0 4, 4 0, 11.99 0 M0 11.99 C0 4, 4 0, 11.99 0" stroke="#1e1e1e" stroke-width="2" fill="none"></path></g><g stroke-linecap="round"><g transform="translate(281.8000114102034 369.3107005168884) rotate(0 -0.42350912425632714 12.704886005339205)"><path d="M0 0 C-0.14 4.23, -0.71 21.17, -0.85 25.41 M0 0 C-0.14 4.23, -0.71 21.17, -0.85 25.41" stroke="#1e1e1e" stroke-width="2" fill="none"></path></g></g><mask></mask><g stroke-linecap="round" transform="translate(531.6627178188947 357.6373754643939) rotate(0 96.98068153706953 24.045941639241732)"><path d="M12.02 0 C48.08 0, 84.15 0, 181.94 0 M12.02 0 C57.42 0, 102.82 0, 181.94 0 M181.94 0 C189.95 0, 193.96 4.01, 193.96 12.02 M181.94 0 C189.95 0, 193.96 4.01, 193.96 12.02 M193.96 12.02 C193.96 20.9, 193.96 29.78, 193.96 36.07 M193.96 12.02 C193.96 20.97, 193.96 29.92, 193.96 36.07 M193.96 36.07 C193.96 44.08, 189.95 48.09, 181.94 48.09 M193.96 36.07 C193.96 44.08, 189.95 48.09, 181.94 48.09 M181.94 48.09 C119.79 48.09, 57.63 48.09, 12.02 48.09 M181.94 48.09 C116.21 48.09, 50.47 48.09, 12.02 48.09 M12.02 48.09 C4.01 48.09, 0 44.08, 0 36.07 M12.02 48.09 C4.01 48.09, 0 44.08, 0 36.07 M0 36.07 C0 29.15, 0 22.23, 0 12.02 M0 36.07 C0 30.73, 0 25.38, 0 12.02 M0 12.02 C0 4.01, 4.01 0, 12.02 0 M0 12.02 C0 4.01, 4.01 0, 12.02 0" stroke="#1e1e1e" stroke-width="2" fill="none"></path></g><g transform="translate(550.9678927641675 368.7900168254234) rotate(0 77.67550659179693 12.89330027821228)"><text x="77.67550659179688" y="0" font-family="Virgil, Segoe UI Emoji" font-size="20.629280445139663px" fill="#1e1e1e" text-anchor="middle" style="white-space: pre;" direction="ltr" dominant-baseline="text-before-edge">Subscribe STIC</text></g><g transform="translate(285.1879293153138 369.73419025502716) rotate(0 71.0327377319336 10.882208796154572)"><text x="0" y="0" font-family="Virgil, Segoe UI Emoji" font-size="17.411534073847307px" fill="#868e96" text-anchor="start" style="white-space: pre;" direction="ltr" dominant-baseline="text-before-edge">Enter your Email</text></g><g transform="translate(443.00820999999985 625.5557379999999) rotate(0 70.80531311035156 25.82004937820784)"><text x="0" y="0" font-family="Virgil, Segoe UI Emoji" font-size="41.31207900513251px" fill="#1e1e1e" text-anchor="start" style="white-space: pre;" direction="ltr" dominant-baseline="text-before-edge">Gallery</text></g><g stroke-linecap="round" transform="translate(152.97510470819805 716.7965513775381) rotate(0 172.44266424877236 85.81076061728493)"><path d="M7.86 8.16 C7.86 8.16, 7.86 8.16, 7.86 8.16 M7.86 8.16 C7.86 8.16, 7.86 8.16, 7.86 8.16 M1.43 27.75 C6.37 22.07, 11.31 16.38, 25.05 0.58 M1.43 27.75 C8.64 19.46, 15.85 11.16, 25.05 0.58 M0.91 40.54 C9.32 30.87, 17.73 21.19, 36.34 -0.21 M0.91 40.54 C11.2 28.71, 21.48 16.88, 36.34 -0.21 M1.04 52.58 C15.17 36.33, 29.3 20.08, 46.97 -0.25 M1.04 52.58 C19.32 31.55, 37.6 10.53, 46.97 -0.25 M1.18 64.62 C14.08 49.78, 26.98 34.94, 57.6 -0.28 M1.18 64.62 C22.85 39.7, 44.51 14.77, 57.6 -0.28 M0.65 77.42 C24.03 50.53, 47.4 23.65, 67.57 0.44 M0.65 77.42 C15.81 59.98, 30.97 42.55, 67.57 0.44 M0.79 89.46 C18.82 68.72, 36.85 47.97, 78.2 0.41 M0.79 89.46 C20.25 67.07, 39.71 44.69, 78.2 0.41 M0.92 101.5 C30.2 67.81, 59.49 34.13, 88.83 0.37 M0.92 101.5 C23.53 75.49, 46.14 49.48, 88.83 0.37 M1.05 113.54 C27.43 83.2, 53.8 52.87, 99.46 0.34 M1.05 113.54 C24.69 86.36, 48.32 59.17, 99.46 0.34 M0.53 126.34 C32.93 89.07, 65.32 51.81, 110.09 0.3 M0.53 126.34 C35.49 86.12, 70.46 45.9, 110.09 0.3 M0.66 138.38 C47.38 84.64, 94.09 30.91, 120.72 0.27 M0.66 138.38 C31.96 102.38, 63.26 66.38, 120.72 0.27 M1.45 149.67 C41.85 103.19, 82.25 56.72, 131.35 0.23 M1.45 149.67 C27.95 119.19, 54.44 88.71, 131.35 0.23 M4.87 157.93 C44.49 112.35, 84.12 66.77, 141.98 0.2 M4.87 157.93 C57.77 97.07, 110.68 36.21, 141.98 0.2 M9.59 164.69 C51.15 116.89, 92.7 69.08, 152.61 0.16 M9.59 164.69 C47.61 120.96, 85.62 77.23, 152.61 0.16 M16.29 169.18 C60.08 118.81, 103.87 68.43, 163.24 0.13 M16.29 169.18 C53.17 126.75, 90.05 84.32, 163.24 0.13 M24.95 171.41 C82.05 105.73, 139.15 40.04, 173.87 0.09 M24.95 171.41 C57.89 133.51, 90.84 95.62, 173.87 0.09 M34.92 172.13 C92.34 106.08, 149.76 40.03, 184.5 0.06 M34.92 172.13 C72.91 128.43, 110.9 84.73, 184.5 0.06 M45.55 172.1 C101.81 107.38, 158.07 42.66, 195.13 0.03 M45.55 172.1 C97.81 111.99, 150.06 51.87, 195.13 0.03 M56.18 172.06 C108.81 111.52, 161.45 50.97, 205.76 -0.01 M56.18 172.06 C109.3 110.96, 162.42 49.85, 205.76 -0.01 M66.81 172.03 C110.58 121.68, 154.36 71.32, 216.39 -0.04 M66.81 172.03 C110.45 121.83, 154.1 71.62, 216.39 -0.04 M77.44 172 C114.06 129.88, 150.67 87.76, 227.02 -0.08 M77.44 172 C118.93 124.27, 160.41 76.55, 227.02 -0.08 M88.07 171.96 C147.08 104.08, 206.1 36.19, 237.65 -0.11 M88.07 171.96 C125.85 128.5, 163.64 85.04, 237.65 -0.11 M98.7 171.93 C149.99 112.93, 201.28 53.93, 248.28 -0.15 M98.7 171.93 C144.46 119.29, 190.22 66.65, 248.28 -0.15 M109.33 171.89 C166.29 106.37, 223.25 40.85, 258.91 -0.18 M109.33 171.89 C168.93 103.34, 228.52 34.78, 258.91 -0.18 M119.96 171.86 C174.4 109.23, 228.84 46.61, 269.54 -0.22 M119.96 171.86 C163.15 122.17, 206.34 72.49, 269.54 -0.22 M130.59 171.82 C188.62 105.07, 246.65 38.31, 280.17 -0.25 M130.59 171.82 C169.23 127.37, 207.87 82.92, 280.17 -0.25 M141.22 171.79 C180.6 126.49, 219.97 81.2, 290.8 -0.28 M141.22 171.79 C176.55 131.15, 211.87 90.51, 290.8 -0.28 M151.85 171.75 C209.94 104.93, 268.03 38.11, 300.78 0.44 M151.85 171.75 C200.1 116.26, 248.34 60.76, 300.78 0.44 M162.48 171.72 C197.26 131.71, 232.04 91.71, 311.41 0.4 M162.48 171.72 C210.29 116.72, 258.1 61.73, 311.41 0.4 M173.11 171.69 C232.21 103.7, 291.32 35.71, 321.38 1.12 M173.11 171.69 C210.09 129.15, 247.06 86.62, 321.38 1.12 M183.74 171.65 C228.38 120.3, 273.02 68.95, 330.04 3.35 M183.74 171.65 C224.51 124.75, 265.28 77.85, 330.04 3.35 M194.37 171.62 C231.76 128.6, 269.16 85.59, 336.74 7.84 M194.37 171.62 C230.14 130.47, 265.9 89.33, 336.74 7.84 M204.35 172.34 C251.75 117.8, 299.16 63.27, 341.46 14.6 M204.35 172.34 C232.73 139.69, 261.11 107.04, 341.46 14.6 M214.98 172.3 C249.7 132.36, 284.43 92.41, 344.22 23.62 M214.98 172.3 C254.86 126.43, 294.74 80.55, 344.22 23.62 M225.61 172.27 C256.73 136.46, 287.86 100.66, 345.01 34.91 M225.61 172.27 C269.34 121.96, 313.07 71.65, 345.01 34.91 M236.24 172.23 C273.35 129.54, 310.46 86.86, 345.14 46.95 M236.24 172.23 C275.77 126.75, 315.31 81.27, 345.14 46.95 M246.87 172.2 C285.26 128.04, 323.65 83.87, 344.62 59.75 M246.87 172.2 C283.96 129.53, 321.04 86.87, 344.62 59.75 M257.5 172.16 C278.47 148.04, 299.44 123.91, 344.75 71.79 M257.5 172.16 C285.31 140.18, 313.11 108.19, 344.75 71.79 M268.13 172.13 C292.86 143.68, 317.58 115.24, 344.89 83.83 M268.13 172.13 C285.92 151.67, 303.71 131.2, 344.89 83.83 M278.76 172.1 C303.05 144.16, 327.33 116.22, 345.02 95.87 M278.76 172.1 C294.8 153.64, 310.85 135.18, 345.02 95.87 M289.39 172.06 C304.26 154.95, 319.14 137.84, 345.15 107.91 M289.39 172.06 C304.51 154.67, 319.63 137.27, 345.15 107.91 M300.02 172.03 C315.89 153.77, 331.77 135.51, 344.63 120.71 M300.02 172.03 C316.19 153.42, 332.37 134.81, 344.63 120.71 M310.65 171.99 C320.26 160.94, 329.87 149.88, 344.76 132.75 M310.65 171.99 C317.74 163.83, 324.84 155.67, 344.76 132.75 M321.93 171.2 C328.41 163.75, 334.89 156.29, 344.9 144.79 M321.93 171.2 C328.17 164.03, 334.4 156.86, 344.9 144.79" stroke="#ffc9c9" stroke-width="1" fill="none"></path><path d="M32 0 C137.34 0, 242.68 0, 312.89 0 M32 0 C93.12 0, 154.25 0, 312.89 0 M312.89 0 C334.22 0, 344.89 10.67, 344.89 32 M312.89 0 C334.22 0, 344.89 10.67, 344.89 32 M344.89 32 C344.89 66.18, 344.89 100.35, 344.89 139.62 M344.89 32 C344.89 60.17, 344.89 88.35, 344.89 139.62 M344.89 139.62 C344.89 160.95, 334.22 171.62, 312.89 171.62 M344.89 139.62 C344.89 160.95, 334.22 171.62, 312.89 171.62 M312.89 171.62 C223.11 171.62, 133.34 171.62, 32 171.62 M312.89 171.62 C214.53 171.62, 116.17 171.62, 32 171.62 M32 171.62 C10.67 171.62, 0 160.95, 0 139.62 M32 171.62 C10.67 171.62, 0 160.95, 0 139.62 M0 139.62 C0 111.4, 0 83.18, 0 32 M0 139.62 C0 114.17, 0 88.71, 0 32 M0 32 C0 10.67, 10.67 0, 32 0 M0 32 C0 10.67, 10.67 0, 32 0" stroke="#1e1e1e" stroke-width="2" fill="none"></path></g><g stroke-linecap="round" transform="translate(148.86923986863246 919.9745544048598) rotate(0 172.85325455063236 95.45934079756995)"><path d="M7.86 8.16 C7.86 8.16, 7.86 8.16, 7.86 8.16 M7.86 8.16 C7.86 8.16, 7.86 8.16, 7.86 8.16 M1.43 27.75 C8.71 19.37, 15.99 11, 25.05 0.58 M1.43 27.75 C6.18 22.29, 10.92 16.84, 25.05 0.58 M0.91 40.54 C9.96 30.13, 19.01 19.72, 36.34 -0.21 M0.91 40.54 C9.68 30.46, 18.44 20.38, 36.34 -0.21 M1.04 52.58 C11.74 40.28, 22.44 27.97, 46.97 -0.25 M1.04 52.58 C16.77 34.49, 32.5 16.4, 46.97 -0.25 M1.18 64.62 C23.53 38.91, 45.89 13.19, 57.6 -0.28 M1.18 64.62 C20.63 42.24, 40.09 19.86, 57.6 -0.28 M0.65 77.42 C23.48 51.16, 46.3 24.91, 67.57 0.44 M0.65 77.42 C16.44 59.27, 32.22 41.11, 67.57 0.44 M0.79 89.46 C30.03 55.82, 59.28 22.18, 78.2 0.41 M0.79 89.46 C19.71 67.69, 38.63 45.93, 78.2 0.41 M0.92 101.5 C19.09 80.6, 37.25 59.71, 88.83 0.37 M0.92 101.5 C33.65 63.85, 66.39 26.19, 88.83 0.37 M1.05 113.54 C39.71 69.08, 78.36 24.61, 99.46 0.34 M1.05 113.54 C32.44 77.44, 63.83 41.33, 99.46 0.34 M0.53 126.34 C26.96 95.94, 53.38 65.54, 110.09 0.3 M0.53 126.34 C23.12 100.35, 45.71 74.37, 110.09 0.3 M0.66 138.38 C33.27 100.87, 65.88 63.36, 120.72 0.27 M0.66 138.38 C37.13 96.43, 73.6 54.48, 120.72 0.27 M0.8 150.42 C39.14 106.31, 77.48 62.2, 131.35 0.23 M0.8 150.42 C47 97.27, 93.21 44.11, 131.35 0.23 M0.27 163.22 C40.23 117.25, 80.18 71.29, 141.98 0.2 M0.27 163.22 C42.32 114.85, 84.36 66.49, 141.98 0.2 M2.38 172.99 C40.04 129.66, 77.71 86.33, 152.61 0.16 M2.38 172.99 C61.67 104.78, 120.96 36.58, 152.61 0.16 M6.45 180.5 C58.05 121.14, 109.66 61.77, 163.24 0.13 M6.45 180.5 C62.6 115.91, 118.75 51.31, 163.24 0.13 M11.83 186.51 C50.11 142.47, 88.39 98.43, 173.87 0.09 M11.83 186.51 C55.58 136.17, 99.33 85.84, 173.87 0.09 M19.83 189.49 C78.44 122.07, 137.05 54.65, 184.5 0.06 M19.83 189.49 C71.03 130.6, 122.23 71.7, 184.5 0.06 M29.15 190.97 C64.31 150.52, 99.47 110.07, 195.13 0.03 M29.15 190.97 C76.3 136.73, 123.45 82.48, 195.13 0.03 M39.12 191.69 C96.21 126.02, 153.29 60.35, 205.76 -0.01 M39.12 191.69 C95.85 126.43, 152.57 61.18, 205.76 -0.01 M49.76 191.65 C112.49 119.48, 175.23 47.31, 216.39 -0.04 M49.76 191.65 C100.32 133.48, 150.89 75.31, 216.39 -0.04 M60.39 191.62 C111.52 132.8, 162.65 73.97, 227.02 -0.08 M60.39 191.62 C126.11 116, 191.84 40.39, 227.02 -0.08 M71.02 191.58 C132.13 121.28, 193.24 50.98, 237.65 -0.11 M71.02 191.58 C130.55 123.1, 190.08 54.62, 237.65 -0.11 M81.65 191.55 C132.32 133.26, 182.98 74.97, 248.28 -0.15 M81.65 191.55 C145.53 118.06, 209.42 44.56, 248.28 -0.15 M92.28 191.51 C135.04 142.32, 177.8 93.13, 258.91 -0.18 M92.28 191.51 C131.78 146.07, 171.28 100.63, 258.91 -0.18 M102.91 191.48 C140.73 147.97, 178.55 104.46, 269.54 -0.22 M102.91 191.48 C166.24 118.62, 229.58 45.76, 269.54 -0.22 M113.54 191.45 C173.13 122.89, 232.72 54.34, 280.17 -0.25 M113.54 191.45 C163.02 134.52, 212.51 77.58, 280.17 -0.25 M124.17 191.41 C158.47 151.95, 192.77 112.49, 290.8 -0.28 M124.17 191.41 C160.81 149.26, 197.45 107.11, 290.8 -0.28 M134.8 191.38 C171.11 149.6, 207.43 107.82, 300.78 0.44 M134.8 191.38 C176.89 142.95, 218.99 94.52, 300.78 0.44 M145.43 191.34 C180.03 151.54, 214.63 111.73, 311.41 0.4 M145.43 191.34 C195.33 133.93, 245.23 76.53, 311.41 0.4 M156.06 191.31 C193.53 148.2, 231.01 105.09, 321.38 1.12 M156.06 191.31 C219.89 117.88, 283.72 44.45, 321.38 1.12 M166.69 191.27 C205.91 146.15, 245.13 101.04, 330.04 3.35 M166.69 191.27 C229.21 119.35, 291.73 47.43, 330.04 3.35 M177.32 191.24 C210.04 153.6, 242.76 115.95, 336.74 7.84 M177.32 191.24 C230.88 129.62, 284.44 68, 336.74 7.84 M187.95 191.2 C240.91 130.28, 293.87 69.36, 342.12 13.85 M187.95 191.2 C247.91 122.22, 307.88 53.23, 342.12 13.85 M198.58 191.17 C230.19 154.81, 261.8 118.44, 344.88 22.87 M198.58 191.17 C243.55 139.43, 288.52 87.7, 344.88 22.87 M209.21 191.14 C263.91 128.2, 318.62 65.27, 346.32 33.4 M209.21 191.14 C237.28 158.85, 265.34 126.56, 346.32 33.4 M219.18 191.86 C264.53 139.69, 309.88 87.52, 345.8 46.2 M219.18 191.86 C252.98 152.97, 286.78 114.09, 345.8 46.2 M229.81 191.82 C267.47 148.5, 305.12 105.18, 345.93 58.24 M229.81 191.82 C262.07 154.71, 294.33 117.6, 345.93 58.24 M240.44 191.79 C279.31 147.07, 318.18 102.36, 346.07 70.28 M240.44 191.79 C276.75 150.02, 313.05 108.26, 346.07 70.28 M251.07 191.75 C277.2 161.69, 303.33 131.63, 346.2 82.32 M251.07 191.75 C271.87 167.83, 292.67 143.9, 346.2 82.32 M261.7 191.72 C280.15 170.5, 298.59 149.28, 345.68 95.11 M261.7 191.72 C280.96 169.57, 300.21 147.41, 345.68 95.11 M272.33 191.68 C290.19 171.14, 308.04 150.6, 345.81 107.16 M272.33 191.68 C287.03 174.77, 301.73 157.87, 345.81 107.16 M282.96 191.65 C303.41 168.13, 323.86 144.6, 345.94 119.2 M282.96 191.65 C306.76 164.27, 330.55 136.9, 345.94 119.2 M293.59 191.61 C307.21 175.95, 320.82 160.29, 346.08 131.24 M293.59 191.61 C312.35 170.04, 331.1 148.46, 346.08 131.24 M304.22 191.58 C318.16 175.54, 332.1 159.51, 346.21 143.28 M304.22 191.58 C312.87 181.63, 321.51 171.69, 346.21 143.28 M315.51 190.79 C327.33 177.19, 339.16 163.59, 345.69 156.07 M315.51 190.79 C327.23 177.31, 338.95 163.82, 345.69 156.07 M327.45 189.25 C333.26 182.56, 339.08 175.87, 345.16 168.87 M327.45 189.25 C332.63 183.28, 337.81 177.32, 345.16 168.87 M7.97 182.89 C7.97 182.89, 7.97 182.89, 7.97 182.89 M7.97 182.89 C7.97 182.89, 7.97 182.89, 7.97 182.89 M28.31 189.97 C21.86 184.37, 15.41 178.76, 1.14 166.36 M28.31 189.97 C18 181.01, 7.69 172.05, 1.14 166.36 M41.11 190.5 C30.39 181.18, 19.67 171.87, 0.35 155.07 M41.11 190.5 C29.87 180.73, 18.63 170.95, 0.35 155.07 M53.9 191.02 C42.06 180.73, 30.23 170.44, 0.32 144.44 M53.9 191.02 C34.03 173.75, 14.17 156.48, 0.32 144.44 M65.94 190.89 C44.62 172.35, 23.3 153.82, 0.28 133.81 M65.94 190.89 C43.6 171.46, 21.25 152.04, 0.28 133.81 M77.98 190.75 C56.38 171.98, 34.78 153.2, 0.25 123.18 M77.98 190.75 C52.1 168.25, 26.22 145.75, 0.25 123.18 M90.02 190.62 C58.72 163.41, 27.42 136.2, 0.21 112.55 M90.02 190.62 C63.53 167.59, 37.04 144.56, 0.21 112.55 M102.06 190.49 C77.12 168.8, 52.17 147.12, 0.18 101.92 M102.06 190.49 C71.99 164.34, 41.91 138.19, 0.18 101.92 M114.86 191.01 C70.16 152.15, 25.46 113.29, 0.14 91.29 M114.86 191.01 C86.16 166.06, 57.46 141.11, 0.14 91.29 M126.9 190.88 C76.72 147.25, 26.53 103.63, 0.11 80.66 M126.9 190.88 C95.32 163.42, 63.73 135.97, 0.11 80.66 M138.94 190.74 C91.61 149.6, 44.28 108.45, 0.08 70.03 M138.94 190.74 C100.23 157.09, 61.52 123.44, 0.08 70.03 M150.98 190.61 C114.6 158.98, 78.21 127.35, 0.8 60.05 M150.98 190.61 C98.61 145.08, 46.24 99.56, 0.8 60.05 M163.02 190.48 C109.09 143.6, 55.16 96.71, 0.76 49.42 M163.02 190.48 C127.96 160, 92.9 129.52, 0.76 49.42 M175.82 191 C117.46 140.27, 59.11 89.54, 0.73 38.79 M175.82 191 C121.42 143.71, 67.02 96.42, 0.73 38.79 M187.86 190.87 C125.72 136.85, 63.58 82.83, 0.69 28.16 M187.86 190.87 C139.2 148.57, 90.54 106.27, 0.69 28.16 M199.9 190.73 C149.41 146.84, 98.91 102.95, 2.17 18.85 M199.9 190.73 C157.57 153.93, 115.23 117.13, 2.17 18.85 M211.94 190.6 C140.85 128.8, 69.76 67.01, 5.91 11.5 M211.94 190.6 C135.54 124.19, 59.14 57.77, 5.91 11.5 M223.98 190.47 C174.49 147.45, 125 104.43, 11.15 5.46 M223.98 190.47 C160.01 134.86, 96.04 79.25, 11.15 5.46 M236.78 190.99 C190.05 150.37, 143.33 109.76, 18.67 1.39 M236.78 190.99 C177.57 139.53, 118.37 88.06, 18.67 1.39 M248.82 190.86 C177.16 128.56, 105.49 66.27, 29.2 -0.06 M248.82 190.86 C166.64 119.42, 84.46 47.99, 29.2 -0.06 M260.86 190.72 C212.58 148.75, 164.3 106.78, 41.24 -0.19 M260.86 190.72 C206.57 143.53, 152.28 96.34, 41.24 -0.19 M272.9 190.59 C221.13 145.59, 169.37 100.59, 53.28 -0.32 M272.9 190.59 C228.64 152.11, 184.38 113.64, 53.28 -0.32 M284.94 190.46 C223.52 137.07, 162.1 83.67, 65.32 -0.46 M284.94 190.46 C208.97 124.41, 132.99 58.37, 65.32 -0.46 M297.74 190.98 C232.45 134.23, 167.16 77.47, 78.12 0.07 M297.74 190.98 C229.27 131.46, 160.8 71.94, 78.12 0.07 M309.78 190.85 C233.14 124.22, 156.49 57.6, 90.16 -0.07 M309.78 190.85 C226.76 118.68, 143.73 46.51, 90.16 -0.07 M321.06 190.06 C258.68 135.83, 196.3 81.6, 102.2 -0.2 M321.06 190.06 C234.3 114.64, 147.54 39.21, 102.2 -0.2 M330.09 187.3 C282.48 145.92, 234.88 104.54, 114.24 -0.33 M330.09 187.3 C261.81 127.95, 193.54 68.6, 114.24 -0.33 M337.6 183.23 C293.12 144.57, 248.64 105.9, 126.28 -0.46 M337.6 183.23 C272.16 126.35, 206.73 69.47, 126.28 -0.46 M342.09 176.54 C276.19 119.25, 210.28 61.95, 139.08 0.06 M342.09 176.54 C281.98 124.28, 221.86 72.02, 139.08 0.06 M345.08 168.53 C282.49 114.13, 219.91 59.73, 151.12 -0.07 M345.08 168.53 C293.09 123.34, 241.1 78.15, 151.12 -0.07 M345.8 158.56 C285.7 106.32, 225.61 54.08, 163.16 -0.21 M345.8 158.56 C306.47 124.37, 267.14 90.18, 163.16 -0.21 M345.76 147.93 C293.21 102.25, 240.66 56.57, 175.2 -0.34 M345.76 147.93 C303.01 110.76, 260.25 73.6, 175.2 -0.34 M345.73 137.3 C292 90.59, 238.27 43.89, 187.24 -0.47 M345.73 137.3 C292.75 91.24, 239.76 45.18, 187.24 -0.47 M345.69 126.67 C303.34 89.85, 260.98 53.03, 200.03 0.05 M345.69 126.67 C287.55 76.13, 229.41 25.58, 200.03 0.05 M345.66 116.04 C305.94 81.51, 266.22 46.98, 212.08 -0.08 M345.66 116.04 C308.81 84, 271.96 51.97, 212.08 -0.08 M345.62 105.41 C317.4 80.87, 289.17 56.33, 224.12 -0.22 M345.62 105.41 C319.18 82.42, 292.74 59.43, 224.12 -0.22 M345.59 94.78 C303.54 58.22, 261.49 21.67, 236.16 -0.35 M345.59 94.78 C320.93 73.34, 296.26 51.9, 236.16 -0.35 M345.56 84.15 C313.52 56.3, 281.48 28.45, 248.95 0.17 M345.56 84.15 C309.56 52.85, 273.56 21.56, 248.95 0.17 M346.28 74.17 C327.72 58.04, 309.16 41.91, 260.99 0.04 M346.28 74.17 C318.07 49.66, 289.87 25.14, 260.99 0.04 M346.24 63.54 C329.75 49.21, 313.25 34.87, 273.03 -0.09 M346.24 63.54 C324.77 44.88, 303.29 26.21, 273.03 -0.09 M346.21 52.91 C330.76 39.49, 315.32 26.06, 285.08 -0.23 M346.21 52.91 C327.74 36.86, 309.27 20.8, 285.08 -0.23 M346.17 42.28 C327.17 25.77, 308.17 9.25, 297.12 -0.36 M346.17 42.28 C327.96 26.45, 309.74 10.62, 297.12 -0.36 M346.14 31.65 C332.3 19.62, 318.46 7.59, 309.91 0.16 M346.14 31.65 C338.44 24.96, 330.73 18.26, 309.91 0.16 M343.84 19.05 C336.63 12.79, 329.43 6.53, 321.95 0.03 M343.84 19.05 C335.95 12.19, 328.05 5.33, 321.95 0.03" stroke="#b2f2bb" stroke-width="1" fill="none"></path><path d="M32 0 C129.39 0, 226.79 0, 313.71 0 M32 0 C90.3 0, 148.61 0, 313.71 0 M313.71 0 C335.04 0, 345.71 10.67, 345.71 32 M313.71 0 C335.04 0, 345.71 10.67, 345.71 32 M345.71 32 C345.71 73.18, 345.71 114.37, 345.71 158.92 M345.71 32 C345.71 67.49, 345.71 102.97, 345.71 158.92 M345.71 158.92 C345.71 180.25, 335.04 190.92, 313.71 190.92 M345.71 158.92 C345.71 180.25, 335.04 190.92, 313.71 190.92 M313.71 190.92 C203.61 190.92, 93.52 190.92, 32 190.92 M313.71 190.92 C244.69 190.92, 175.68 190.92, 32 190.92 M32 190.92 C10.67 190.92, 0 180.25, 0 158.92 M32 190.92 C10.67 190.92, 0 180.25, 0 158.92 M0 158.92 C0 125.91, 0 92.89, 0 32 M0 158.92 C0 124.33, 0 89.75, 0 32 M0 32 C0 10.67, 10.67 0, 32 0 M0 32 C0 10.67, 10.67 0, 32 0" stroke="#1e1e1e" stroke-width="2" fill="none"></path></g><g stroke-linecap="round" transform="translate(556.0436770268999 716.7965509954607) rotate(0 161.3570644042083 175.72729268985898)"><path d="M7.86 8.16 C7.86 8.16, 7.86 8.16, 7.86 8.16 M7.86 8.16 C7.86 8.16, 7.86 8.16, 7.86 8.16 M1.43 27.75 C6.44 21.99, 11.44 16.24, 25.05 0.58 M1.43 27.75 C8.14 20.03, 14.85 12.31, 25.05 0.58 M0.91 40.54 C13.05 26.58, 25.18 12.62, 36.34 -0.21 M0.91 40.54 C12.97 26.67, 25.03 12.8, 36.34 -0.21 M1.04 52.58 C18.33 32.69, 35.62 12.8, 46.97 -0.25 M1.04 52.58 C14.98 36.55, 28.92 20.52, 46.97 -0.25 M1.18 64.62 C18.49 44.71, 35.8 24.79, 57.6 -0.28 M1.18 64.62 C23.43 39.02, 45.69 13.42, 57.6 -0.28 M1.31 76.67 C25.61 48.71, 49.91 20.76, 67.57 0.44 M1.31 76.67 C24.98 49.43, 48.65 22.2, 67.57 0.44 M0.79 89.46 C24.33 62.38, 47.87 35.3, 78.2 0.41 M0.79 89.46 C30.47 55.32, 60.15 21.17, 78.2 0.41 M0.92 101.5 C23.48 75.55, 46.04 49.6, 88.83 0.37 M0.92 101.5 C21.76 77.53, 42.6 53.55, 88.83 0.37 M1.05 113.54 C23.39 87.85, 45.73 62.15, 99.46 0.34 M1.05 113.54 C38.46 70.51, 75.86 27.49, 99.46 0.34 M1.19 125.58 C40.13 80.78, 79.08 35.98, 110.09 0.3 M1.19 125.58 C33.53 88.38, 65.87 51.17, 110.09 0.3 M0.66 138.38 C25.38 109.95, 50.09 81.52, 120.72 0.27 M0.66 138.38 C27.06 108.01, 53.46 77.64, 120.72 0.27 M0.8 150.42 C29.36 117.56, 57.93 84.7, 131.35 0.23 M0.8 150.42 C33.91 112.33, 67.02 74.24, 131.35 0.23 M0.93 162.46 C30.34 128.63, 59.74 94.81, 141.98 0.2 M0.93 162.46 C43.34 113.68, 85.75 64.89, 141.98 0.2 M1.06 174.5 C35.42 134.98, 69.77 95.47, 152.61 0.16 M1.06 174.5 C59.58 107.19, 118.09 39.88, 152.61 0.16 M0.54 187.3 C39.6 142.36, 78.67 97.42, 163.24 0.13 M0.54 187.3 C62.81 115.66, 125.08 44.03, 163.24 0.13 M0.67 199.34 C36.22 158.44, 71.77 117.55, 173.87 0.09 M0.67 199.34 C58.87 132.39, 117.06 65.45, 173.87 0.09 M0.81 211.38 C63.91 138.79, 127.01 66.2, 184.5 0.06 M0.81 211.38 C72.26 129.18, 143.71 46.99, 184.5 0.06 M0.94 223.42 C42.9 175.15, 84.86 126.88, 195.13 0.03 M0.94 223.42 C60.64 154.75, 120.33 86.08, 195.13 0.03 M1.07 235.46 C82.74 141.51, 164.41 47.56, 205.76 -0.01 M1.07 235.46 C42.98 187.26, 84.88 139.05, 205.76 -0.01 M0.55 248.26 C77.85 159.33, 155.16 70.4, 216.39 -0.04 M0.55 248.26 C58.17 181.97, 115.79 115.69, 216.39 -0.04 M0.68 260.3 C74.08 175.86, 147.48 91.42, 227.02 -0.08 M0.68 260.3 C63.57 187.96, 126.45 115.62, 227.02 -0.08 M0.82 272.34 C87.97 172.08, 175.13 71.81, 237.65 -0.11 M0.82 272.34 C82.22 178.69, 163.62 85.05, 237.65 -0.11 M0.95 284.38 C68.89 206.22, 136.84 128.06, 248.28 -0.15 M0.95 284.38 C55.03 222.17, 109.11 159.96, 248.28 -0.15 M0.43 297.17 C57.21 231.86, 113.99 166.54, 258.91 -0.18 M0.43 297.17 C59.7 228.99, 118.97 160.8, 258.91 -0.18 M0.56 309.22 C65.92 234.02, 131.29 158.83, 269.54 -0.22 M0.56 309.22 C54.37 247.32, 108.17 185.42, 269.54 -0.22 M0.69 321.26 C91.43 216.88, 182.16 112.5, 280.17 -0.25 M0.69 321.26 C106.29 199.78, 211.89 78.3, 280.17 -0.25 M2.14 331.79 C77.03 245.63, 151.92 159.48, 290.8 -0.28 M2.14 331.79 C105.29 213.12, 208.45 94.46, 290.8 -0.28 M5.55 340.05 C103.35 227.55, 201.15 115.05, 300.12 1.19 M5.55 340.05 C66.2 270.29, 126.85 200.52, 300.12 1.19 M10.93 346.06 C127.64 211.81, 244.34 77.55, 308.78 3.42 M10.93 346.06 C126.63 212.97, 242.32 79.88, 308.78 3.42 M18.28 349.8 C115.62 237.83, 212.95 125.86, 314.82 8.67 M18.28 349.8 C105.05 249.99, 191.81 150.18, 314.82 8.67 M27.6 351.27 C128.44 235.27, 229.28 119.27, 319.55 15.43 M27.6 351.27 C130.84 232.51, 234.08 113.74, 319.55 15.43 M37.58 351.99 C105.16 274.25, 172.74 196.51, 322.31 24.45 M37.58 351.99 C145.63 227.69, 253.69 103.38, 322.31 24.45 M48.21 351.96 C120.49 268.81, 192.77 185.66, 323.09 35.73 M48.21 351.96 C124.02 264.74, 199.84 177.52, 323.09 35.73 M58.84 351.92 C117.24 284.74, 175.64 217.55, 323.23 47.78 M58.84 351.92 C156.86 239.15, 254.89 126.38, 323.23 47.78 M69.47 351.89 C151.92 257.04, 234.37 162.19, 323.36 59.82 M69.47 351.89 C155.87 252.49, 242.27 153.1, 323.36 59.82 M80.1 351.85 C147.73 274.05, 215.37 196.24, 323.49 71.86 M80.1 351.85 C161.14 258.62, 242.19 165.39, 323.49 71.86 M90.73 351.82 C171.68 258.7, 252.63 165.57, 322.97 84.65 M90.73 351.82 C159.23 273.01, 227.74 194.2, 322.97 84.65 M101.36 351.79 C155.65 289.33, 209.95 226.87, 323.1 96.69 M101.36 351.79 C166.82 276.48, 232.28 201.17, 323.1 96.69 M111.99 351.75 C194.3 257.05, 276.62 162.36, 323.24 108.73 M111.99 351.75 C164.84 290.95, 217.69 230.15, 323.24 108.73 M122.62 351.72 C202.08 260.31, 281.53 168.9, 323.37 120.77 M122.62 351.72 C172.62 294.19, 222.63 236.66, 323.37 120.77 M133.25 351.68 C198.1 277.08, 262.95 202.48, 323.5 132.82 M133.25 351.68 C186.29 290.67, 239.32 229.65, 323.5 132.82 M143.88 351.65 C187.27 301.73, 230.66 251.81, 322.98 145.61 M143.88 351.65 C206.33 279.8, 268.79 207.95, 322.98 145.61 M154.51 351.61 C210.55 287.15, 266.59 222.68, 323.11 157.65 M154.51 351.61 C190.94 309.7, 227.38 267.79, 323.11 157.65 M165.14 351.58 C217.83 290.96, 270.53 230.34, 323.25 169.69 M165.14 351.58 C214.26 295.07, 263.38 238.56, 323.25 169.69 M175.77 351.54 C224.78 295.17, 273.78 238.79, 323.38 181.73 M175.77 351.54 C214.14 307.4, 252.52 263.25, 323.38 181.73 M186.4 351.51 C221.41 311.23, 256.43 270.95, 323.51 193.77 M186.4 351.51 C215.75 317.74, 245.11 283.97, 323.51 193.77 M197.03 351.47 C240.49 301.48, 283.95 251.48, 322.99 206.57 M197.03 351.47 C243.74 297.74, 290.45 244.01, 322.99 206.57 M207 352.19 C234 321.13, 261 290.07, 323.12 218.61 M207 352.19 C241.9 312.04, 276.81 271.89, 323.12 218.61 M217.63 352.16 C240.26 326.13, 262.89 300.1, 323.26 230.65 M217.63 352.16 C246.3 319.18, 274.97 286.2, 323.26 230.65 M228.26 352.13 C259.3 316.42, 290.34 280.71, 323.39 242.69 M228.26 352.13 C263.86 311.18, 299.45 270.23, 323.39 242.69 M238.89 352.09 C257.5 330.69, 276.1 309.29, 323.52 254.73 M238.89 352.09 C259.81 328.03, 280.73 303.96, 323.52 254.73 M249.52 352.06 C266.84 332.13, 284.16 312.21, 323 267.53 M249.52 352.06 C264.33 335.02, 279.14 317.99, 323 267.53 M260.15 352.02 C277.77 331.76, 295.38 311.5, 323.13 279.57 M260.15 352.02 C281.94 326.96, 303.73 301.89, 323.13 279.57 M270.78 351.99 C286.38 334.04, 301.99 316.09, 323.27 291.61 M270.78 351.99 C287.14 333.17, 303.51 314.34, 323.27 291.61 M281.41 351.95 C296.06 335.1, 310.72 318.24, 323.4 303.65 M281.41 351.95 C297.28 333.69, 313.16 315.44, 323.4 303.65 M292.04 351.92 C301.02 341.59, 309.99 331.27, 323.53 315.69 M292.04 351.92 C304.53 337.56, 317.01 323.2, 323.53 315.69 M304.64 349.62 C308.55 345.13, 312.45 340.63, 322.35 329.24 M304.64 349.62 C310.24 343.17, 315.85 336.73, 322.35 329.24" stroke="#ffec99" stroke-width="1" fill="none"></path><path d="M32 0 C100.41 0, 168.82 0, 290.71 0 M32 0 C120.94 0, 209.87 0, 290.71 0 M290.71 0 C312.05 0, 322.71 10.67, 322.71 32 M290.71 0 C312.05 0, 322.71 10.67, 322.71 32 M322.71 32 C322.71 117.54, 322.71 203.08, 322.71 319.45 M322.71 32 C322.71 120.4, 322.71 208.79, 322.71 319.45 M322.71 319.45 C322.71 340.79, 312.05 351.45, 290.71 351.45 M322.71 319.45 C322.71 340.79, 312.05 351.45, 290.71 351.45 M290.71 351.45 C222.62 351.45, 154.52 351.45, 32 351.45 M290.71 351.45 C213.01 351.45, 135.3 351.45, 32 351.45 M32 351.45 C10.67 351.45, 0 340.79, 0 319.45 M32 351.45 C10.67 351.45, 0 340.79, 0 319.45 M0 319.45 C0 243.5, 0 167.55, 0 32 M0 319.45 C0 232.03, 0 144.6, 0 32 M0 32 C0 10.67, 10.67 0, 32 0 M0 32 C0 10.67, 10.67 0, 32 0" stroke="#1e1e1e" stroke-width="2" fill="none"></path></g><g stroke-linecap="round" transform="translate(156.25978976500812 1142.449718111448) rotate(0 169.15797942340896 153.8194107257017)"><path d="M7.86 8.16 C7.86 8.16, 7.86 8.16, 7.86 8.16 M7.86 8.16 C7.86 8.16, 7.86 8.16, 7.86 8.16 M1.43 27.75 C9.86 18.06, 18.28 8.37, 25.05 0.58 M1.43 27.75 C6.27 22.18, 11.11 16.61, 25.05 0.58 M0.91 40.54 C8.73 31.54, 16.56 22.55, 36.34 -0.21 M0.91 40.54 C8.42 31.9, 15.93 23.27, 36.34 -0.21 M1.04 52.58 C10.25 41.99, 19.46 31.4, 46.97 -0.25 M1.04 52.58 C10.76 41.41, 20.48 30.23, 46.97 -0.25 M1.18 64.62 C13.81 50.09, 26.45 35.55, 57.6 -0.28 M1.18 64.62 C19.64 43.38, 38.1 22.15, 57.6 -0.28 M1.31 76.67 C26.79 47.36, 52.26 18.05, 67.57 0.44 M1.31 76.67 C19.88 55.3, 38.45 33.94, 67.57 0.44 M0.79 89.46 C17.45 70.3, 34.1 51.14, 78.2 0.41 M0.79 89.46 C25.13 61.46, 49.47 33.46, 78.2 0.41 M0.92 101.5 C32.91 64.7, 64.91 27.89, 88.83 0.37 M0.92 101.5 C29.17 69, 57.42 36.51, 88.83 0.37 M1.05 113.54 C27.48 83.14, 53.9 52.75, 99.46 0.34 M1.05 113.54 C36.99 72.21, 72.92 30.87, 99.46 0.34 M1.19 125.58 C26.41 96.57, 51.62 67.56, 110.09 0.3 M1.19 125.58 C23.81 99.56, 46.42 73.54, 110.09 0.3 M0.66 138.38 C36.14 97.57, 71.62 56.75, 120.72 0.27 M0.66 138.38 C28.69 106.13, 56.72 73.89, 120.72 0.27 M0.8 150.42 C42.27 102.71, 83.74 55, 131.35 0.23 M0.8 150.42 C49.71 94.15, 98.62 37.89, 131.35 0.23 M0.93 162.46 C35.51 122.68, 70.09 82.9, 141.98 0.2 M0.93 162.46 C34.22 124.16, 67.51 85.87, 141.98 0.2 M1.06 174.5 C60.17 106.51, 119.27 38.52, 152.61 0.16 M1.06 174.5 C34.41 136.14, 67.76 97.77, 152.61 0.16 M0.54 187.3 C50 130.4, 99.47 73.5, 163.24 0.13 M0.54 187.3 C41.52 140.15, 82.5 93.01, 163.24 0.13 M0.67 199.34 C44.64 148.76, 88.61 98.18, 173.87 0.09 M0.67 199.34 C53.37 138.71, 106.07 78.09, 173.87 0.09 M0.81 211.38 C55.19 148.82, 109.58 86.25, 184.5 0.06 M0.81 211.38 C60.08 143.19, 119.35 75.01, 184.5 0.06 M0.94 223.42 C69.3 144.79, 137.65 66.15, 195.13 0.03 M0.94 223.42 C68.94 145.2, 136.94 66.97, 195.13 0.03 M0.42 236.22 C58.5 169.4, 116.58 102.58, 205.76 -0.01 M0.42 236.22 C52.26 176.57, 104.11 116.93, 205.76 -0.01 M0.55 248.26 C79.27 157.7, 157.98 67.15, 216.39 -0.04 M0.55 248.26 C53.01 187.91, 105.47 127.56, 216.39 -0.04 M0.68 260.3 C82.94 165.67, 165.19 71.05, 227.02 -0.08 M0.68 260.3 C47.74 206.16, 94.8 152.02, 227.02 -0.08 M0.82 272.34 C50.49 215.2, 100.16 158.06, 237.65 -0.11 M0.82 272.34 C55.48 209.45, 110.14 146.57, 237.65 -0.11 M0.95 284.38 C68.78 206.35, 136.61 128.32, 248.28 -0.15 M0.95 284.38 C79.62 193.88, 158.3 103.37, 248.28 -0.15 M3.71 293.4 C65.56 222.25, 127.42 151.09, 258.91 -0.18 M3.71 293.4 C86.34 198.34, 168.97 103.29, 258.91 -0.18 M8.43 300.16 C110.11 183.2, 211.78 66.24, 269.54 -0.22 M8.43 300.16 C80.13 217.68, 151.82 135.21, 269.54 -0.22 M15.13 304.65 C82.82 226.78, 150.51 148.91, 280.17 -0.25 M15.13 304.65 C93.27 214.76, 171.41 124.87, 280.17 -0.25 M23.79 306.88 C109.33 208.48, 194.87 110.08, 290.8 -0.28 M23.79 306.88 C112.31 205.05, 200.82 103.23, 290.8 -0.28 M33.76 307.6 C108.28 221.88, 182.79 136.16, 300.78 0.44 M33.76 307.6 C108.33 221.82, 182.91 136.03, 300.78 0.44 M44.39 307.57 C128.82 210.45, 213.24 113.33, 311.41 0.4 M44.39 307.57 C125.96 213.74, 207.52 119.91, 311.41 0.4 M55.02 307.53 C156.3 191.03, 257.58 74.52, 320.73 1.88 M55.02 307.53 C154.66 192.91, 254.31 78.28, 320.73 1.88 M65.65 307.5 C134.6 228.19, 203.54 148.88, 327.42 6.37 M65.65 307.5 C163.96 194.41, 262.27 81.32, 327.42 6.37 M76.28 307.46 C144.94 228.48, 213.6 149.5, 333.46 11.62 M76.28 307.46 C138.61 235.76, 200.94 164.06, 333.46 11.62 M86.26 308.18 C157.93 225.74, 229.59 143.29, 336.87 19.89 M86.26 308.18 C157.28 226.49, 228.29 144.79, 336.87 19.89 M96.89 308.15 C164.31 230.59, 231.72 153.04, 338.32 30.42 M96.89 308.15 C170.33 223.67, 243.77 139.19, 338.32 30.42 M107.52 308.12 C187.53 216.07, 267.54 124.03, 339.11 41.7 M107.52 308.12 C184.64 219.39, 261.77 130.67, 339.11 41.7 M118.15 308.08 C206.2 206.79, 294.26 105.49, 339.24 53.74 M118.15 308.08 C194.61 220.12, 271.07 132.16, 339.24 53.74 M128.78 308.05 C179.36 249.85, 229.95 191.66, 338.72 66.54 M128.78 308.05 C210.89 213.58, 293.01 119.12, 338.72 66.54 M139.41 308.01 C187.64 252.53, 235.86 197.05, 338.85 78.58 M139.41 308.01 C202.26 235.7, 265.12 163.4, 338.85 78.58 M150.04 307.98 C189.51 262.57, 228.98 217.17, 338.98 90.62 M150.04 307.98 C204.22 245.64, 258.41 183.31, 338.98 90.62 M160.67 307.94 C207.98 253.51, 255.3 199.08, 339.12 102.66 M160.67 307.94 C218.22 241.74, 275.77 175.53, 339.12 102.66 M171.3 307.91 C225.6 245.44, 279.91 182.97, 339.25 114.7 M171.3 307.91 C206.83 267.03, 242.36 226.16, 339.25 114.7 M181.93 307.87 C238.54 242.75, 295.15 177.62, 338.73 127.5 M181.93 307.87 C219.68 264.45, 257.42 221.02, 338.73 127.5 M192.56 307.84 C235.83 258.06, 279.1 208.28, 338.86 139.54 M192.56 307.84 C239.31 254.05, 286.07 200.27, 338.86 139.54 M203.19 307.8 C238.47 267.22, 273.75 226.63, 338.99 151.58 M203.19 307.8 C244.64 260.12, 286.09 212.44, 338.99 151.58 M213.82 307.77 C248.31 268.09, 282.81 228.41, 339.13 163.62 M213.82 307.77 C254.85 260.57, 295.88 213.37, 339.13 163.62 M224.45 307.74 C262.24 264.26, 300.03 220.79, 339.26 175.66 M224.45 307.74 C260.47 266.3, 296.49 224.86, 339.26 175.66 M235.08 307.7 C260.82 278.09, 286.56 248.48, 338.74 188.46 M235.08 307.7 C267.65 270.23, 300.23 232.75, 338.74 188.46 M245.71 307.67 C280.59 267.54, 315.47 227.41, 338.87 200.5 M245.71 307.67 C266.83 283.37, 287.95 259.07, 338.87 200.5 M256.34 307.63 C276.09 284.91, 295.85 262.18, 339 212.54 M256.34 307.63 C282.92 277.05, 309.51 246.46, 339 212.54 M266.97 307.6 C284.17 287.81, 301.37 268.03, 339.14 224.58 M266.97 307.6 C293.45 277.13, 319.94 246.66, 339.14 224.58 M277.6 307.56 C296.64 285.66, 315.68 263.76, 339.27 236.62 M277.6 307.56 C299.41 282.48, 321.22 257.39, 339.27 236.62 M288.23 307.53 C298.39 295.84, 308.55 284.15, 338.75 249.42 M288.23 307.53 C299.34 294.75, 310.45 281.97, 338.75 249.42 M298.86 307.49 C313.13 291.08, 327.4 274.66, 338.88 261.46 M298.86 307.49 C313.94 290.14, 329.03 272.79, 338.88 261.46 M309.49 307.46 C320.73 294.53, 331.97 281.6, 339.01 273.5 M309.49 307.46 C316.38 299.54, 323.26 291.61, 339.01 273.5 M322.74 304.41 C327.35 299.11, 331.96 293.81, 337.18 287.8 M322.74 304.41 C327.37 299.09, 332 293.76, 337.18 287.8 M8.29 299.89 C8.29 299.89, 8.29 299.89, 8.29 299.89 M8.29 299.89 C8.29 299.89, 8.29 299.89, 8.29 299.89 M28.63 306.97 C18.29 297.98, 7.95 288.99, 0.71 282.7 M28.63 306.97 C20.92 300.27, 13.21 293.57, 0.71 282.7 M41.43 307.5 C31.11 298.53, 20.79 289.56, -0.08 271.41 M41.43 307.5 C27.09 295.03, 12.75 282.56, -0.08 271.41 M53.47 307.36 C36.22 292.37, 18.98 277.38, -0.12 260.78 M53.47 307.36 C37.52 293.5, 21.56 279.63, -0.12 260.78 M65.51 307.23 C41.88 286.69, 18.25 266.15, -0.15 250.15 M65.51 307.23 C42.37 287.11, 19.23 267, -0.15 250.15 M77.55 307.1 C60.26 292.06, 42.96 277.03, -0.19 239.52 M77.55 307.1 C61.85 293.45, 46.15 279.8, -0.19 239.52 M90.34 307.62 C60.35 281.54, 30.35 255.47, 0.53 229.55 M90.34 307.62 C60.14 281.36, 29.94 255.11, 0.53 229.55 M102.39 307.49 C65.82 275.7, 29.26 243.92, 0.5 218.92 M102.39 307.49 C64.89 274.89, 27.4 242.3, 0.5 218.92 M114.43 307.35 C82.95 279.99, 51.47 252.63, 0.46 208.29 M114.43 307.35 C73.7 271.95, 32.97 236.54, 0.46 208.29 M126.47 307.22 C94.32 279.28, 62.18 251.33, 0.43 197.66 M126.47 307.22 C83.94 270.25, 41.42 233.29, 0.43 197.66 M139.26 307.74 C93.54 268, 47.82 228.25, 0.4 187.03 M139.26 307.74 C106.13 278.94, 72.99 250.13, 0.4 187.03 M151.3 307.61 C110.17 271.85, 69.03 236.09, 0.36 176.4 M151.3 307.61 C118.96 279.5, 86.62 251.38, 0.36 176.4 M163.34 307.48 C118.77 268.73, 74.2 229.98, 0.33 165.77 M163.34 307.48 C103.8 255.71, 44.25 203.95, 0.33 165.77 M175.39 307.34 C138.56 275.33, 101.73 243.32, 0.29 155.14 M175.39 307.34 C128.95 266.98, 82.52 226.62, 0.29 155.14 M187.43 307.21 C126.32 254.09, 65.21 200.97, 0.26 144.51 M187.43 307.21 C134.04 260.8, 80.65 214.39, 0.26 144.51 M200.22 307.73 C139.23 254.71, 78.23 201.69, 0.22 133.88 M200.22 307.73 C136.37 252.23, 72.51 196.72, 0.22 133.88 M212.26 307.6 C139.37 244.23, 66.47 180.87, 0.19 123.25 M212.26 307.6 C146.76 250.66, 81.27 193.73, 0.19 123.25 M224.3 307.47 C172.64 262.55, 120.97 217.64, 0.15 112.62 M224.3 307.47 C141.79 235.74, 59.27 164.01, 0.15 112.62 M236.34 307.33 C184.87 262.59, 133.4 217.84, 0.12 101.99 M236.34 307.33 C163.36 243.89, 90.38 180.44, 0.12 101.99 M248.38 307.2 C174.29 242.79, 100.2 178.38, 0.09 91.36 M248.38 307.2 C157.55 228.23, 66.71 149.27, 0.09 91.36 M261.18 307.72 C188.46 244.51, 115.74 181.29, 0.81 81.38 M261.18 307.72 C177.62 235.08, 94.05 162.44, 0.81 81.38 M273.22 307.59 C203 246.55, 132.79 185.51, 0.77 70.75 M273.22 307.59 C210.82 253.35, 148.42 199.1, 0.77 70.75 M285.26 307.46 C201.13 234.32, 117 161.19, 0.74 60.12 M285.26 307.46 C187.78 222.72, 90.3 137.97, 0.74 60.12 M297.3 307.32 C209.81 231.27, 122.31 155.21, 0.7 49.49 M297.3 307.32 C227.07 246.27, 156.83 185.22, 0.7 49.49 M309.34 307.19 C225.28 234.12, 141.22 161.04, 0.67 38.86 M309.34 307.19 C206.14 217.47, 102.93 127.75, 0.67 38.86 M319.88 305.75 C245.1 240.75, 170.33 175.75, 0.63 28.23 M319.88 305.75 C246.22 241.71, 172.56 177.68, 0.63 28.23 M327.39 301.68 C245.41 230.42, 163.44 159.16, 2.11 18.91 M327.39 301.68 C256.15 239.75, 184.91 177.82, 2.11 18.91 M333.39 296.29 C223.03 200.36, 112.68 104.43, 5.85 11.56 M333.39 296.29 C262.99 235.09, 192.59 173.89, 5.85 11.56 M336.38 288.29 C233.91 199.22, 131.45 110.15, 11.1 5.53 M336.38 288.29 C244.67 208.57, 152.97 128.85, 11.1 5.53 M337.85 278.97 C241.39 195.12, 144.94 111.27, 18.61 1.46 M337.85 278.97 C224.19 180.17, 110.54 81.37, 18.61 1.46 M338.57 269 C221.27 167.03, 103.97 65.06, 29.14 0.01 M338.57 269 C223.79 169.22, 109 69.44, 29.14 0.01 M338.54 258.37 C259.32 189.51, 180.11 120.65, 41.18 -0.12 M338.54 258.37 C224.62 159.34, 110.71 60.32, 41.18 -0.12 M338.5 247.74 C224.53 148.66, 110.55 49.58, 53.22 -0.25 M338.5 247.74 C253.93 174.22, 169.36 100.71, 53.22 -0.25 M338.47 237.11 C282.81 188.73, 227.16 140.35, 65.26 -0.39 M338.47 237.11 C232.54 145.02, 126.61 52.94, 65.26 -0.39 M338.43 226.48 C242.33 142.94, 146.23 59.4, 78.06 0.14 M338.43 226.48 C278.22 174.13, 218.01 121.79, 78.06 0.14 M338.4 215.85 C257.55 145.57, 176.71 75.29, 90.1 0 M338.4 215.85 C282.77 167.49, 227.14 119.13, 90.1 0 M338.36 205.22 C263.23 139.91, 188.1 74.6, 102.14 -0.13 M338.36 205.22 C264.96 141.41, 191.56 77.6, 102.14 -0.13 M338.33 194.59 C275.32 139.82, 212.32 85.05, 114.18 -0.26 M338.33 194.59 C269.15 134.45, 199.97 74.31, 114.18 -0.26 M338.29 183.96 C271.66 126.03, 205.03 68.11, 126.22 -0.4 M338.29 183.96 C288.94 141.05, 239.58 98.15, 126.22 -0.4 M338.26 173.33 C267.19 111.55, 196.12 49.76, 139.02 0.13 M338.26 173.33 C294.3 135.11, 250.34 96.9, 139.02 0.13 M338.23 162.7 C289.04 119.94, 239.86 77.18, 151.06 -0.01 M338.23 162.7 C290.01 120.78, 241.8 78.87, 151.06 -0.01 M338.19 152.07 C289.78 109.99, 241.38 67.91, 163.1 -0.14 M338.19 152.07 C285.38 106.16, 232.58 60.26, 163.1 -0.14 M338.16 141.44 C288.17 97.99, 238.19 54.54, 175.14 -0.27 M338.16 141.44 C304.22 111.93, 270.28 82.43, 175.14 -0.27 M338.12 130.81 C307.65 104.31, 277.17 77.82, 187.18 -0.41 M338.12 130.81 C299.53 97.26, 260.95 63.72, 187.18 -0.41 M338.09 120.18 C306.89 93.05, 275.68 65.93, 199.98 0.12 M338.09 120.18 C300.82 87.78, 263.54 55.38, 199.98 0.12 M338.81 110.2 C296.71 73.6, 254.61 37.01, 212.02 -0.02 M338.81 110.2 C294.51 71.69, 250.21 33.18, 212.02 -0.02 M338.77 99.57 C311.41 75.79, 284.05 52, 224.06 -0.15 M338.77 99.57 C293.98 60.63, 249.19 21.7, 224.06 -0.15 M338.74 88.94 C307.6 61.87, 276.46 34.8, 236.1 -0.28 M338.74 88.94 C316.99 70.03, 295.23 51.12, 236.1 -0.28 M338.7 78.31 C302.81 47.11, 266.92 15.91, 248.89 0.24 M338.7 78.31 C313.53 56.42, 288.35 34.54, 248.89 0.24 M338.67 67.68 C308.35 41.33, 278.04 14.97, 260.93 0.11 M338.67 67.68 C320.41 51.81, 302.16 35.94, 260.93 0.11 M338.64 57.05 C325.37 45.52, 312.1 33.98, 272.98 -0.03 M338.64 57.05 C324.69 44.93, 310.75 32.81, 272.98 -0.03 M338.6 46.42 C322.35 32.29, 306.09 18.16, 285.02 -0.16 M338.6 46.42 C318.65 29.08, 298.7 11.74, 285.02 -0.16 M338.57 35.79 C322.95 22.22, 307.34 8.65, 297.06 -0.29 M338.57 35.79 C329.36 27.79, 320.15 19.78, 297.06 -0.29 M337.78 24.5 C326.82 14.98, 315.86 5.45, 309.85 0.23 M337.78 24.5 C328.26 16.23, 318.74 7.96, 309.85 0.23" stroke="#ffc9c9" stroke-width="1" fill="none"></path><path d="M32 0 C92.02 0, 152.04 0, 306.32 0 M32 0 C101.57 0, 171.15 0, 306.32 0 M306.32 0 C327.65 0, 338.32 10.67, 338.32 32 M306.32 0 C327.65 0, 338.32 10.67, 338.32 32 M338.32 32 C338.32 94.34, 338.32 156.67, 338.32 275.64 M338.32 32 C338.32 96.69, 338.32 161.37, 338.32 275.64 M338.32 275.64 C338.32 296.97, 327.65 307.64, 306.32 307.64 M338.32 275.64 C338.32 296.97, 327.65 307.64, 306.32 307.64 M306.32 307.64 C248.36 307.64, 190.41 307.64, 32 307.64 M306.32 307.64 C199.19 307.64, 92.06 307.64, 32 307.64 M32 307.64 C10.67 307.64, 0 296.97, 0 275.64 M32 307.64 C10.67 307.64, 0 296.97, 0 275.64 M0 275.64 C0 205.3, 0 134.95, 0 32 M0 275.64 C0 203.21, 0 130.78, 0 32 M0 32 C0 10.67, 10.67 0, 32 0 M0 32 C0 10.67, 10.67 0, 32 0" stroke="#1e1e1e" stroke-width="2" fill="none"></path></g><g stroke-linecap="round" transform="translate(553.5801350000003 1094.1175539999995) rotate(0 162.5888353097884 95.25403684392597)"><path d="M7.86 8.16 C7.86 8.16, 7.86 8.16, 7.86 8.16 M7.86 8.16 C7.86 8.16, 7.86 8.16, 7.86 8.16 M1.43 27.75 C9.79 18.14, 18.14 8.53, 25.05 0.58 M1.43 27.75 C7.04 21.3, 12.65 14.85, 25.05 0.58 M0.91 40.54 C14.36 25.08, 27.8 9.61, 36.34 -0.21 M0.91 40.54 C10.23 29.83, 19.54 19.11, 36.34 -0.21 M1.04 52.58 C13.71 38.01, 26.38 23.44, 46.97 -0.25 M1.04 52.58 C11.19 40.91, 21.33 29.24, 46.97 -0.25 M1.18 64.62 C22.1 40.56, 43.02 16.49, 57.6 -0.28 M1.18 64.62 C19.5 43.55, 37.82 22.47, 57.6 -0.28 M0.65 77.42 C23.43 51.22, 46.2 25.03, 67.57 0.44 M0.65 77.42 C19.25 56.03, 37.85 34.64, 67.57 0.44 M0.79 89.46 C26.56 59.81, 52.34 30.15, 78.2 0.41 M0.79 89.46 C27.77 58.42, 54.76 27.38, 78.2 0.41 M0.92 101.5 C26.85 71.67, 52.79 41.84, 88.83 0.37 M0.92 101.5 C22.45 76.74, 43.97 51.98, 88.83 0.37 M1.05 113.54 C30.11 80.12, 59.16 46.7, 99.46 0.34 M1.05 113.54 C39.4 69.43, 77.75 25.32, 99.46 0.34 M0.53 126.34 C27.94 94.81, 55.35 63.27, 110.09 0.3 M0.53 126.34 C43.9 76.45, 87.26 26.57, 110.09 0.3 M0.66 138.38 C30.57 103.98, 60.48 69.57, 120.72 0.27 M0.66 138.38 C41.59 91.3, 82.51 44.23, 120.72 0.27 M0.8 150.42 C37.19 108.55, 73.59 66.68, 131.35 0.23 M0.8 150.42 C32.43 114.03, 64.06 77.65, 131.35 0.23 M0.27 163.22 C49.69 106.37, 99.11 49.52, 141.98 0.2 M0.27 163.22 C47.37 109.03, 94.48 54.85, 141.98 0.2 M2.38 172.99 C34.84 135.65, 67.31 98.3, 152.61 0.16 M2.38 172.99 C52.45 115.39, 102.52 57.79, 152.61 0.16 M6.45 180.5 C55.16 124.46, 103.88 68.42, 163.24 0.13 M6.45 180.5 C58.5 120.62, 110.56 60.73, 163.24 0.13 M12.48 185.75 C54.44 137.48, 96.4 89.22, 173.87 0.09 M12.48 185.75 C53.7 138.34, 94.91 90.93, 173.87 0.09 M20.49 188.74 C55.61 148.34, 90.72 107.94, 184.5 0.06 M20.49 188.74 C77.08 123.64, 133.67 58.54, 184.5 0.06 M29.81 190.21 C91.11 119.69, 152.42 49.16, 195.13 0.03 M29.81 190.21 C68.25 145.99, 106.69 101.76, 195.13 0.03 M39.78 190.93 C89.67 133.54, 139.56 76.15, 205.76 -0.01 M39.78 190.93 C75.34 150.03, 110.89 109.13, 205.76 -0.01 M50.41 190.9 C95.47 139.07, 140.52 87.24, 216.39 -0.04 M50.41 190.9 C104.57 128.59, 158.73 66.29, 216.39 -0.04 M61.04 190.86 C123.15 119.42, 185.26 47.97, 227.02 -0.08 M61.04 190.86 C97.53 148.89, 134.02 106.91, 227.02 -0.08 M71.67 190.83 C112.7 143.63, 153.73 96.43, 237.65 -0.11 M71.67 190.83 C110.8 145.82, 149.92 100.81, 237.65 -0.11 M82.3 190.79 C115.75 152.31, 149.21 113.83, 248.28 -0.15 M82.3 190.79 C128.72 137.39, 175.14 83.99, 248.28 -0.15 M92.93 190.76 C150.35 124.71, 207.77 58.65, 258.91 -0.18 M92.93 190.76 C142.28 134, 191.62 77.23, 258.91 -0.18 M103.56 190.73 C155.31 131.2, 207.05 71.67, 269.54 -0.22 M103.56 190.73 C161.49 124.09, 219.41 57.46, 269.54 -0.22 M114.19 190.69 C176.94 118.51, 239.68 46.33, 280.17 -0.25 M114.19 190.69 C161.5 136.27, 208.81 81.84, 280.17 -0.25 M124.82 190.66 C190.62 114.96, 256.42 39.27, 290.8 -0.28 M124.82 190.66 C161.43 148.55, 198.03 106.43, 290.8 -0.28 M135.45 190.62 C187.74 130.47, 240.04 70.31, 300.78 0.44 M135.45 190.62 C170.25 150.59, 205.05 110.56, 300.78 0.44 M146.08 190.59 C196.67 132.4, 247.25 74.21, 309.44 2.66 M146.08 190.59 C199.11 129.58, 252.15 68.57, 309.44 2.66 M156.71 190.55 C203.92 136.25, 251.13 81.94, 316.13 7.16 M156.71 190.55 C208.15 131.38, 259.59 72.2, 316.13 7.16 M167.34 190.52 C208.49 143.18, 249.64 95.85, 320.86 13.92 M167.34 190.52 C217.85 132.41, 268.37 74.3, 320.86 13.92 M177.97 190.48 C209.48 154.24, 240.98 118, 324.27 22.18 M177.97 190.48 C223.05 138.63, 268.12 86.78, 324.27 22.18 M188.6 190.45 C222.97 150.91, 257.34 111.37, 325.72 32.72 M188.6 190.45 C235.09 136.98, 281.57 83.5, 325.72 32.72 M199.23 190.42 C241.56 141.72, 283.89 93.03, 325.85 44.76 M199.23 190.42 C236.05 148.06, 272.87 105.7, 325.85 44.76 M209.86 190.38 C256.21 137.06, 302.57 83.74, 325.98 56.8 M209.86 190.38 C244.39 150.66, 278.92 110.94, 325.98 56.8 M220.49 190.35 C249.63 156.83, 278.77 123.31, 326.12 68.84 M220.49 190.35 C245.03 162.12, 269.57 133.89, 326.12 68.84 M231.12 190.31 C251.68 166.66, 272.24 143.01, 325.6 81.63 M231.12 190.31 C267.43 148.55, 303.73 106.79, 325.6 81.63 M241.75 190.28 C260.68 168.51, 279.6 146.73, 325.73 93.67 M241.75 190.28 C269.6 158.24, 297.45 126.2, 325.73 93.67 M252.38 190.24 C279.76 158.74, 307.15 127.24, 325.86 105.72 M252.38 190.24 C268.37 171.85, 284.36 153.45, 325.86 105.72 M262.36 190.96 C283.4 166.75, 304.44 142.55, 325.99 117.76 M262.36 190.96 C276.69 174.47, 291.03 157.98, 325.99 117.76 M272.99 190.93 C288.58 173, 304.16 155.06, 326.13 129.8 M272.99 190.93 C286.41 175.49, 299.84 160.04, 326.13 129.8 M283.62 190.89 C296.3 176.3, 308.99 161.71, 325.6 142.59 M283.62 190.89 C299.88 172.18, 316.14 153.48, 325.6 142.59 M294.9 190.1 C306.35 176.93, 317.8 163.76, 325.74 154.63 M294.9 190.1 C306.68 176.55, 318.47 163, 325.74 154.63 M306.19 189.32 C310.09 184.82, 314 180.33, 324.56 168.18 M306.19 189.32 C312.24 182.36, 318.29 175.4, 324.56 168.18" stroke="#b2f2bb" stroke-width="1" fill="none"></path><path d="M32 0 C120.89 0, 209.79 0, 293.18 0 M32 0 C95.32 0, 158.64 0, 293.18 0 M293.18 0 C314.51 0, 325.18 10.67, 325.18 32 M293.18 0 C314.51 0, 325.18 10.67, 325.18 32 M325.18 32 C325.18 72.65, 325.18 113.3, 325.18 158.51 M325.18 32 C325.18 65.97, 325.18 99.94, 325.18 158.51 M325.18 158.51 C325.18 179.84, 314.51 190.51, 293.18 190.51 M325.18 158.51 C325.18 179.84, 314.51 190.51, 293.18 190.51 M293.18 190.51 C204.42 190.51, 115.67 190.51, 32 190.51 M293.18 190.51 C191.06 190.51, 88.94 190.51, 32 190.51 M32 190.51 C10.67 190.51, 0 179.84, 0 158.51 M32 190.51 C10.67 190.51, 0 179.84, 0 158.51 M0 158.51 C0 128.42, 0 98.33, 0 32 M0 158.51 C0 125.07, 0 91.62, 0 32 M0 32 C0 10.67, 10.67 0, 32 0 M0 32 C0 10.67, 10.67 0, 32 0" stroke="#1e1e1e" stroke-width="2" fill="none"></path></g><g stroke-linecap="round" transform="translate(548.6533525077955 1310.4920472032413) rotate(0 165.0522267628785 69.798246303229)"><path d="M7.86 8.16 C7.86 8.16, 7.86 8.16, 7.86 8.16 M7.86 8.16 C7.86 8.16, 7.86 8.16, 7.86 8.16 M1.43 27.75 C6.3 22.15, 11.16 16.55, 25.05 0.58 M1.43 27.75 C6.75 21.63, 12.07 15.52, 25.05 0.58 M0.91 40.54 C9.82 30.29, 18.73 20.04, 36.34 -0.21 M0.91 40.54 C15.06 24.27, 29.2 8, 36.34 -0.21 M1.04 52.58 C12.93 38.91, 24.82 25.23, 46.97 -0.25 M1.04 52.58 C12.03 39.95, 23.01 27.31, 46.97 -0.25 M1.18 64.62 C12.74 51.32, 24.3 38.02, 57.6 -0.28 M1.18 64.62 C14.99 48.74, 28.8 32.85, 57.6 -0.28 M0.65 77.42 C26.17 48.06, 51.69 18.71, 67.57 0.44 M0.65 77.42 C25.01 49.4, 49.37 21.38, 67.57 0.44 M0.79 89.46 C21.67 65.44, 42.54 41.43, 78.2 0.41 M0.79 89.46 C25.34 61.22, 49.89 32.98, 78.2 0.41 M0.92 101.5 C19.93 79.63, 38.94 57.76, 88.83 0.37 M0.92 101.5 C29.26 68.91, 57.59 36.31, 88.83 0.37 M1.05 113.54 C31.3 78.75, 61.54 43.97, 99.46 0.34 M1.05 113.54 C22.73 88.6, 44.41 63.66, 99.46 0.34 M3.16 123.32 C29.23 93.32, 55.31 63.32, 110.09 0.3 M3.16 123.32 C45.88 74.17, 88.6 25.02, 110.09 0.3 M7.22 130.83 C31.83 102.52, 56.44 74.22, 120.72 0.27 M7.22 130.83 C43.66 88.92, 80.09 47.01, 120.72 0.27 M13.92 135.33 C58.77 83.73, 103.62 32.14, 131.35 0.23 M13.92 135.33 C42.51 102.43, 71.11 69.54, 131.35 0.23 M21.92 138.31 C62.11 92.08, 102.3 45.85, 141.98 0.2 M21.92 138.31 C63.74 90.2, 105.56 42.1, 141.98 0.2 M31.24 139.78 C78.05 85.93, 124.86 32.08, 152.61 0.16 M31.24 139.78 C63.35 102.85, 95.46 65.92, 152.61 0.16 M41.87 139.75 C70.4 106.93, 98.93 74.11, 163.24 0.13 M41.87 139.75 C89.67 84.76, 137.47 29.78, 163.24 0.13 M52.5 139.72 C82.6 105.09, 112.7 70.47, 173.87 0.09 M52.5 139.72 C81.09 106.83, 109.67 73.95, 173.87 0.09 M63.13 139.68 C103.11 93.69, 143.08 47.71, 184.5 0.06 M63.13 139.68 C100.96 96.17, 138.78 52.66, 184.5 0.06 M73.76 139.65 C122.2 83.93, 170.63 28.22, 195.13 0.03 M73.76 139.65 C109.18 98.9, 144.6 58.16, 195.13 0.03 M84.39 139.61 C116.76 102.38, 149.12 65.15, 205.76 -0.01 M84.39 139.61 C123.03 95.16, 161.67 50.71, 205.76 -0.01 M94.37 140.33 C131.79 97.28, 169.21 54.24, 216.39 -0.04 M94.37 140.33 C134.79 93.83, 175.21 47.34, 216.39 -0.04 M105 140.3 C145.68 93.49, 186.37 46.69, 227.02 -0.08 M105 140.3 C152.96 85.12, 200.93 29.94, 227.02 -0.08 M115.63 140.26 C149.32 101.5, 183.01 62.75, 237.65 -0.11 M115.63 140.26 C141.76 110.2, 167.9 80.14, 237.65 -0.11 M126.26 140.23 C157.22 104.61, 188.18 68.99, 248.28 -0.15 M126.26 140.23 C160.11 101.29, 193.96 62.34, 248.28 -0.15 M136.89 140.19 C167.41 105.08, 197.94 69.96, 258.91 -0.18 M136.89 140.19 C181.24 89.18, 225.59 38.16, 258.91 -0.18 M147.52 140.16 C195 85.54, 242.47 30.93, 269.54 -0.22 M147.52 140.16 C181.13 101.49, 214.75 62.82, 269.54 -0.22 M158.15 140.13 C183.66 110.78, 209.17 81.43, 280.17 -0.25 M158.15 140.13 C202.62 88.97, 247.09 37.81, 280.17 -0.25 M168.78 140.09 C210.08 92.57, 251.39 45.06, 290.8 -0.28 M168.78 140.09 C199.75 104.46, 230.73 68.83, 290.8 -0.28 M179.41 140.06 C224.39 88.31, 269.37 36.56, 300.78 0.44 M179.41 140.06 C223.7 89.1, 268 38.15, 300.78 0.44 M190.04 140.02 C230.68 93.27, 271.32 46.51, 310.1 1.91 M190.04 140.02 C219.05 106.65, 248.05 73.28, 310.1 1.91 M200.67 139.99 C246.48 87.29, 292.29 34.59, 318.1 4.89 M200.67 139.99 C233.01 102.79, 265.34 65.59, 318.1 4.89 M211.3 139.95 C240.99 105.79, 270.69 71.63, 324.14 10.14 M211.3 139.95 C237.3 110.04, 263.3 80.13, 324.14 10.14 M221.93 139.92 C260.22 95.87, 298.51 51.82, 328.21 17.66 M221.93 139.92 C261.1 94.86, 300.27 49.8, 328.21 17.66 M232.56 139.88 C254.3 114.87, 276.05 89.86, 329.65 28.19 M232.56 139.88 C268.9 98.07, 305.25 56.26, 329.65 28.19 M243.19 139.85 C261.5 118.79, 279.81 97.72, 329.79 40.23 M243.19 139.85 C267.42 111.97, 291.66 84.09, 329.79 40.23 M253.82 139.82 C281.97 107.43, 310.12 75.05, 329.92 52.27 M253.82 139.82 C283.49 105.68, 313.17 71.54, 329.92 52.27 M264.45 139.78 C284.87 116.29, 305.3 92.79, 330.05 64.31 M264.45 139.78 C278.04 124.15, 291.62 108.52, 330.05 64.31 M275.08 139.75 C290.92 121.52, 306.77 103.29, 330.19 76.35 M275.08 139.75 C294.72 117.15, 314.36 94.56, 330.19 76.35 M285.71 139.71 C297.54 126.1, 309.37 112.49, 330.32 88.39 M285.71 139.71 C299.57 123.77, 313.43 107.83, 330.32 88.39 M296.34 139.68 C303.19 131.79, 310.04 123.91, 330.45 100.43 M296.34 139.68 C307.09 127.3, 317.85 114.93, 330.45 100.43 M307.62 138.89 C314.67 130.78, 321.72 122.68, 329.93 113.23 M307.62 138.89 C314.61 130.85, 321.61 122.81, 329.93 113.23 M7.72 131.35 C7.72 131.35, 7.72 131.35, 7.72 131.35 M7.72 131.35 C7.72 131.35, 7.72 131.35, 7.72 131.35 M28.06 138.44 C18.73 130.32, 9.39 122.2, 0.89 114.82 M28.06 138.44 C19.89 131.34, 11.73 124.24, 0.89 114.82 M41.61 139.61 C29.23 128.85, 16.85 118.09, 0.1 103.53 M41.61 139.61 C25.46 125.57, 9.3 111.53, 0.1 103.53 M53.65 139.48 C39.39 127.08, 25.13 114.68, 0.07 92.9 M53.65 139.48 C36.49 124.57, 19.34 109.65, 0.07 92.9 M65.69 139.35 C44.82 121.2, 23.95 103.06, 0.03 82.27 M65.69 139.35 C39.43 116.52, 13.17 93.69, 0.03 82.27 M77.73 139.21 C59.17 123.07, 40.6 106.93, 0 71.64 M77.73 139.21 C48 113.37, 18.27 87.52, 0 71.64 M89.78 139.08 C71.58 123.26, 53.38 107.44, 0.72 61.67 M89.78 139.08 C54.64 108.54, 19.5 78, 0.72 61.67 M102.57 139.6 C76.65 117.07, 50.73 94.54, 0.68 51.04 M102.57 139.6 C76.04 116.54, 49.51 93.48, 0.68 51.04 M114.61 139.47 C72.55 102.91, 30.49 66.34, 0.65 40.41 M114.61 139.47 C88.74 116.98, 62.86 94.49, 0.65 40.41 M126.65 139.34 C83.4 101.74, 40.16 64.15, 0.62 29.78 M126.65 139.34 C90.21 107.66, 53.76 75.97, 0.62 29.78 M138.69 139.21 C102.81 108.02, 66.94 76.83, 1.34 19.8 M138.69 139.21 C95.55 101.7, 52.41 64.2, 1.34 19.8 M150.73 139.07 C96.43 91.87, 42.14 44.67, 5.08 12.45 M150.73 139.07 C97.31 92.64, 43.9 46.2, 5.08 12.45 M163.53 139.6 C107.27 90.69, 51.02 41.79, 10.32 6.42 M163.53 139.6 C127.56 108.33, 91.6 77.06, 10.32 6.42 M175.57 139.46 C136.35 105.37, 97.14 71.28, 17.84 2.35 M175.57 139.46 C119.82 91, 64.07 42.54, 17.84 2.35 M187.61 139.33 C153.84 109.97, 120.06 80.61, 27.61 0.24 M187.61 139.33 C134.7 93.34, 81.8 47.35, 27.61 0.24 M199.65 139.2 C149.27 95.4, 98.88 51.6, 38.9 -0.54 M199.65 139.2 C155.91 101.17, 112.17 63.15, 38.9 -0.54 M211.69 139.06 C154.72 89.54, 97.75 40.02, 50.94 -0.68 M211.69 139.06 C162.52 96.31, 113.34 53.56, 50.94 -0.68 M224.49 139.59 C168.36 90.8, 112.24 42.01, 62.98 -0.81 M224.49 139.59 C174.73 96.33, 124.98 53.08, 62.98 -0.81 M236.53 139.45 C172.55 83.83, 108.57 28.21, 75.02 -0.94 M236.53 139.45 C199.85 107.57, 163.17 75.68, 75.02 -0.94 M248.57 139.32 C189.32 87.81, 130.07 36.31, 87.82 -0.42 M248.57 139.32 C214.93 110.08, 181.3 80.84, 87.82 -0.42 M260.61 139.19 C200.67 87.08, 140.73 34.97, 99.86 -0.55 M260.61 139.19 C208.63 94, 156.66 48.82, 99.86 -0.55 M272.65 139.05 C235.36 106.64, 198.07 74.22, 111.9 -0.69 M272.65 139.05 C226.69 99.1, 180.73 59.14, 111.9 -0.69 M285.45 139.58 C227.53 89.23, 169.61 38.88, 123.94 -0.82 M285.45 139.58 C223.07 85.35, 160.7 31.13, 123.94 -0.82 M297.49 139.44 C260.28 107.09, 223.06 74.75, 135.98 -0.95 M297.49 139.44 C263.41 109.82, 229.33 80.2, 135.98 -0.95 M308.02 138 C265.85 101.34, 223.67 64.67, 148.78 -0.43 M308.02 138 C249.13 86.81, 190.24 35.61, 148.78 -0.43 M317.04 135.24 C271.08 95.29, 225.12 55.33, 160.82 -0.56 M317.04 135.24 C282.7 105.39, 248.37 75.54, 160.82 -0.56 M323.05 129.86 C286.91 98.44, 250.77 67.03, 172.86 -0.7 M323.05 129.86 C264.36 78.84, 205.67 27.83, 172.86 -0.7 M327.54 123.16 C271.75 74.67, 215.97 26.18, 184.9 -0.83 M327.54 123.16 C283.3 84.7, 239.05 46.24, 184.9 -0.83 M329.77 114.5 C293.58 83.04, 257.39 51.58, 196.94 -0.96 M329.77 114.5 C286.18 76.61, 242.59 38.72, 196.94 -0.96 M330.49 104.53 C291.08 70.27, 251.66 36.01, 209.74 -0.44 M330.49 104.53 C301.21 79.07, 271.92 53.62, 209.74 -0.44 M330.45 93.9 C288.68 57.58, 246.9 21.27, 221.78 -0.57 M330.45 93.9 C306.15 72.77, 281.85 51.65, 221.78 -0.57 M330.42 83.27 C297.3 54.48, 264.18 25.69, 233.82 -0.71 M330.42 83.27 C297.61 54.75, 264.81 26.23, 233.82 -0.71 M330.39 72.64 C310.27 55.16, 290.16 37.67, 245.86 -0.84 M330.39 72.64 C306.62 51.98, 282.85 31.31, 245.86 -0.84 M330.35 62.01 C307.11 41.81, 283.88 21.61, 257.9 -0.97 M330.35 62.01 C309.57 43.94, 288.79 25.88, 257.9 -0.97 M330.32 51.38 C310.52 34.17, 290.71 16.95, 270.69 -0.45 M330.32 51.38 C314.36 37.51, 298.41 23.64, 270.69 -0.45 M330.28 40.75 C312.32 25.13, 294.35 9.52, 282.74 -0.58 M330.28 40.75 C314.49 27.02, 298.7 13.3, 282.74 -0.58 M330.25 30.12 C323.03 23.85, 315.81 17.57, 294.78 -0.72 M330.25 30.12 C319.19 20.51, 308.13 10.89, 294.78 -0.72 M327.95 17.52 C322.66 12.92, 317.38 8.33, 308.33 0.46 M327.95 17.52 C322.34 12.65, 316.74 7.78, 308.33 0.46" stroke="#a5d8ff" stroke-width="1" fill="none"></path><path d="M32 0 C86.98 0, 141.96 0, 298.1 0 M32 0 C124.02 0, 216.05 0, 298.1 0 M298.1 0 C319.44 0, 330.1 10.67, 330.1 32 M298.1 0 C319.44 0, 330.1 10.67, 330.1 32 M330.1 32 C330.1 57.01, 330.1 82.03, 330.1 107.6 M330.1 32 C330.1 60.59, 330.1 89.18, 330.1 107.6 M330.1 107.6 C330.1 128.93, 319.44 139.6, 298.1 139.6 M330.1 107.6 C330.1 128.93, 319.44 139.6, 298.1 139.6 M298.1 139.6 C235.93 139.6, 173.76 139.6, 32 139.6 M298.1 139.6 C227.75 139.6, 157.39 139.6, 32 139.6 M32 139.6 C10.67 139.6, 0 128.93, 0 107.6 M32 139.6 C10.67 139.6, 0 128.93, 0 107.6 M0 107.6 C0 84.11, 0 60.62, 0 32 M0 107.6 C0 92.04, 0 76.48, 0 32 M0 32 C0 10.67, 10.67 0, 32 0 M0 32 C0 10.67, 10.67 0, 32 0" stroke="#1e1e1e" stroke-width="2" fill="none"></path></g><g transform="translate(458.67946300000006 1578.8889579999993) rotate(0 82.52857208251953 27.013849279076453)"><text x="0" y="0" font-family="Virgil, Segoe UI Emoji" font-size="43.22215884652239px" fill="#1e1e1e" text-anchor="start" style="white-space: pre;" direction="ltr" dominant-baseline="text-before-edge">Events </text></g><g stroke-linecap="round" transform="translate(61.794334000000106 1670.3782079999994) rotate(0 169.15797950000004 271.6666920979819)"><path d="M32 0 C132.59 -0.94, 235.65 -0.51, 306.32 0 M32 0 C105.16 2.08, 177.51 2.44, 306.32 0 M306.32 0 C327.41 1.34, 340.13 11.95, 338.32 32 M306.32 0 C326.79 -2.12, 337.87 10.6, 338.32 32 M338.32 32 C338.87 219.79, 339.13 407.28, 338.32 511.33 M338.32 32 C338.56 167.9, 338.62 303.91, 338.32 511.33 M338.32 511.33 C340.26 534.06, 327.16 541.98, 306.32 543.33 M338.32 511.33 C337.76 531.12, 325.98 545.58, 306.32 543.33 M306.32 543.33 C238 545.95, 171.53 544.03, 32 543.33 M306.32 543.33 C247.12 542.02, 187.56 541.42, 32 543.33 M32 543.33 C10.37 543.99, 1.87 533.22, 0 511.33 M32 543.33 C8.71 544.24, -2.21 530.39, 0 511.33 M0 511.33 C-0.9 359.49, -1.83 208.63, 0 32 M0 511.33 C0.64 386.11, 0.28 261, 0 32 M0 32 C-1.57 11.26, 12.46 -0.21, 32 0 M0 32 C-0.2 12.84, 10.13 1.36, 32 0" stroke="#1e1e1e" stroke-width="2" fill="none"></path></g><g transform="translate(180.6163472132531 1894.8176584418463) rotate(0 45.298194885253906 23.613620872382967)"><text x="45.298194885253906" y="0" font-family="Virgil, Segoe UI Emoji" font-size="37.78179339581273px" fill="#1e1e1e" text-anchor="middle" style="white-space: pre;" direction="ltr" dominant-baseline="text-before-edge">Title</text></g><g transform="translate(107.22541542972488 1956.4975270730313) rotate(0 123.63694763183594 76.21161884015169)"><text x="0" y="0" font-family="Virgil, Segoe UI Emoji" font-size="20.32309835737378px" fill="#1e1e1e" text-anchor="start" style="white-space: pre;" direction="ltr" dominant-baseline="text-before-edge">Lorem ipsum dolor sit </text><text x="0" y="25.403872946717225" font-family="Virgil, Segoe UI Emoji" font-size="20.32309835737378px" fill="#1e1e1e" text-anchor="start" style="white-space: pre;" direction="ltr" dominant-baseline="text-before-edge">consequuntur, provident </text><text x="0" y="50.80774589343445" font-family="Virgil, Segoe UI Emoji" font-size="20.32309835737378px" fill="#1e1e1e" text-anchor="start" style="white-space: pre;" direction="ltr" dominant-baseline="text-before-edge">amet consectetur, adipis</text><text x="0" y="76.21161884015167" font-family="Virgil, Segoe UI Emoji" font-size="20.32309835737378px" fill="#1e1e1e" text-anchor="start" style="white-space: pre;" direction="ltr" dominant-baseline="text-before-edge">elit. Accusamus nobis </text><text x="0" y="101.6154917868689" font-family="Virgil, Segoe UI Emoji" font-size="20.32309835737378px" fill="#1e1e1e" text-anchor="start" style="white-space: pre;" direction="ltr" dominant-baseline="text-before-edge">consequuntur, provident </text><text x="0" y="127.01936473358613" font-family="Virgil, Segoe UI Emoji" font-size="20.32309835737378px" fill="#1e1e1e" text-anchor="start" style="white-space: pre;" direction="ltr" dominant-baseline="text-before-edge">elit. Accusamus nobis </text></g><g stroke-linecap="round"><g transform="translate(150.36932809035295 1716.5933321137547) rotate(0 77.02010739618265 60.20584565943443)"><path d="M-1.12 1.17 C24.48 21.48, 128.65 101.13, 154.68 121.08 M0.5 0.74 C25.9 20.77, 128.34 99.63, 154.07 119.3" stroke="#1e1e1e" stroke-width="2" fill="none"></path></g></g><mask></mask><g stroke-linecap="round" transform="translate(135.16535299999998 1698.3366639999997) rotate(0 95.78696135967067 82.26413268712952)"><path d="M32 0 C63.03 0.03, 90.25 3.08, 159.57 0 M32 0 C65.04 -0.66, 97.88 -0.8, 159.57 0 M159.57 0 C181.2 -0.67, 192.35 11.77, 191.57 32 M159.57 0 C179.48 0.27, 190.11 11.14, 191.57 32 M191.57 32 C192.46 58.11, 189.5 86.33, 191.57 132.53 M191.57 32 C191.34 68.45, 191.01 105.16, 191.57 132.53 M191.57 132.53 C189.89 151.91, 180.49 164.73, 159.57 164.53 M191.57 132.53 C193.61 152.32, 180.4 166.58, 159.57 164.53 M159.57 164.53 C128.52 163.59, 98.04 166.18, 32 164.53 M159.57 164.53 C126.46 164.25, 94.48 163.51, 32 164.53 M32 164.53 C9.47 166.34, -1.7 153.44, 0 132.53 M32 164.53 C8.88 165.93, 1.98 152.98, 0 132.53 M0 132.53 C2.32 100.95, 2.17 68.46, 0 32 M0 132.53 C0.02 100.36, 1.41 68.97, 0 32 M0 32 C1.34 11.24, 10.7 -0.72, 32 0 M0 32 C-1.59 12.86, 9.44 -1.72, 32 0" stroke="#1e1e1e" stroke-width="2" fill="none"></path></g><g stroke-linecap="round"><g transform="translate(306.4725803935577 1720.6828413554606) rotate(0 -73.24888314895156 61.9798182507692)"><path d="M-0.26 -0.76 C-24.7 19.9, -121.98 102.28, -146.45 122.91 M1.81 1.46 C-22.8 22.32, -122.37 103.5, -147.38 123.9" stroke="#1e1e1e" stroke-width="2" fill="none"></path></g></g><mask></mask><g stroke-linecap="round" transform="translate(469.16736000000026 1672.828232) rotate(0 169.15797950000007 271.6666920979819)"><path d="M32 0 C90.71 -2.69, 150.95 -2.64, 306.32 0 M32 0 C124.99 1.03, 218.36 2.01, 306.32 0 M306.32 0 C326.34 0.28, 338.07 12.64, 338.32 32 M306.32 0 C327.28 0.33, 337.61 11.05, 338.32 32 M338.32 32 C338.26 176.78, 338.78 320.44, 338.32 511.33 M338.32 32 C337.42 196.96, 337.5 360.78, 338.32 511.33 M338.32 511.33 C339.36 533.67, 328.93 541.37, 306.32 543.33 M338.32 511.33 C336.41 531.92, 329.17 543.1, 306.32 543.33 M306.32 543.33 C249.35 540.42, 189.36 542.78, 32 543.33 M306.32 543.33 C228.92 545.7, 149.81 544.81, 32 543.33 M32 543.33 C11.42 541.38, -1.64 534.63, 0 511.33 M32 543.33 C8.84 543.51, 1.97 531.09, 0 511.33 M0 511.33 C1.35 351.02, 0.96 191.51, 0 32 M0 511.33 C-0.39 346.87, -0.22 183.35, 0 32 M0 32 C-1.95 10.38, 11.88 0.74, 32 0 M0 32 C1.44 8.57, 10.97 0.75, 32 0" stroke="#1e1e1e" stroke-width="2" fill="none"></path></g><g transform="translate(587.9893732132535 1897.267682441847) rotate(0 45.29819488525396 23.613620872382967)"><text x="45.298194885253906" y="0" font-family="Virgil, Segoe UI Emoji" font-size="37.78179339581273px" fill="#1e1e1e" text-anchor="middle" style="white-space: pre;" direction="ltr" dominant-baseline="text-before-edge">Title</text></g><g transform="translate(514.5984414297251 1958.947551073031) rotate(0 123.63694763183588 76.21161884015169)"><text x="0" y="0" font-family="Virgil, Segoe UI Emoji" font-size="20.32309835737378px" fill="#1e1e1e" text-anchor="start" style="white-space: pre;" direction="ltr" dominant-baseline="text-before-edge">Lorem ipsum dolor sit </text><text x="0" y="25.403872946717225" font-family="Virgil, Segoe UI Emoji" font-size="20.32309835737378px" fill="#1e1e1e" text-anchor="start" style="white-space: pre;" direction="ltr" dominant-baseline="text-before-edge">consequuntur, provident </text><text x="0" y="50.80774589343445" font-family="Virgil, Segoe UI Emoji" font-size="20.32309835737378px" fill="#1e1e1e" text-anchor="start" style="white-space: pre;" direction="ltr" dominant-baseline="text-before-edge">amet consectetur, adipis</text><text x="0" y="76.21161884015167" font-family="Virgil, Segoe UI Emoji" font-size="20.32309835737378px" fill="#1e1e1e" text-anchor="start" style="white-space: pre;" direction="ltr" dominant-baseline="text-before-edge">elit. Accusamus nobis </text><text x="0" y="101.6154917868689" font-family="Virgil, Segoe UI Emoji" font-size="20.32309835737378px" fill="#1e1e1e" text-anchor="start" style="white-space: pre;" direction="ltr" dominant-baseline="text-before-edge">consequuntur, provident </text><text x="0" y="127.01936473358613" font-family="Virgil, Segoe UI Emoji" font-size="20.32309835737378px" fill="#1e1e1e" text-anchor="start" style="white-space: pre;" direction="ltr" dominant-baseline="text-before-edge">elit. Accusamus nobis </text></g><g stroke-linecap="round"><g transform="translate(557.7423540903532 1719.0433561137554) rotate(0 77.02010739618271 60.20584565943443)"><path d="M-0.26 -1.13 C25.61 18.94, 128.95 98.93, 154.5 119.23 M1.81 0.89 C27.63 21.16, 128.19 99.94, 153.8 120.15" stroke="#1e1e1e" stroke-width="2" fill="none"></path></g></g><mask></mask><g stroke-linecap="round" transform="translate(542.538379 1700.7866879999995) rotate(0 95.78696135967067 82.26413268712952)"><path d="M32 0 C58.61 -0.77, 82.02 1.6, 159.57 0 M32 0 C57.54 -0.27, 84.27 0.57, 159.57 0 M159.57 0 C180.59 0.29, 190.96 11, 191.57 32 M159.57 0 C180.95 0.77, 190.52 8.68, 191.57 32 M191.57 32 C192.17 63.42, 191.6 95.26, 191.57 132.53 M191.57 32 C191.82 71.36, 191.94 108.73, 191.57 132.53 M191.57 132.53 C189.92 153.21, 182.23 164.32, 159.57 164.53 M191.57 132.53 C189.53 153.84, 178.68 165.98, 159.57 164.53 M159.57 164.53 C127.98 165.32, 98.58 167.14, 32 164.53 M159.57 164.53 C109.93 163.27, 58.72 165.23, 32 164.53 M32 164.53 C9.08 164.68, 1.71 152.49, 0 132.53 M32 164.53 C11.46 163.97, -0.63 156.11, 0 132.53 M0 132.53 C0.32 103.26, 0.68 72.75, 0 32 M0 132.53 C-0.93 108.38, 0.65 84.89, 0 32 M0 32 C1.26 8.84, 10.93 0.65, 32 0 M0 32 C-1.55 12.06, 12.04 0.27, 32 0" stroke="#1e1e1e" stroke-width="2" fill="none"></path></g><g stroke-linecap="round"><g transform="translate(713.8456063935578 1723.1328653554604) rotate(0 -73.24888314895156 61.9798182507692)"><path d="M0.46 -1.18 C-24.08 19.71, -122.81 103.17, -147.49 124.2 M-0.76 0.81 C-24.91 21.41, -121.2 101.8, -145.3 122.2" stroke="#1e1e1e" stroke-width="2" fill="none"></path></g></g><mask></mask><g stroke-linecap="round" transform="translate(883.5195629804684 1672.828232) rotate(0 51.824463009765736 271.666692)"><path d="M25.91 0 C38.92 0, 51.93 0, 77.74 0 M25.91 0 C41.7 0, 57.49 0, 77.74 0 M77.74 0 C95.01 0, 103.65 8.64, 103.65 25.91 M77.74 0 C95.01 0, 103.65 8.64, 103.65 25.91 M103.65 25.91 C103.65 165.42, 103.65 304.93, 103.65 517.42 M103.65 25.91 C103.65 208.43, 103.65 390.96, 103.65 517.42 M103.65 517.42 C103.65 534.7, 95.01 543.33, 77.74 543.33 M103.65 517.42 C103.65 534.7, 95.01 543.33, 77.74 543.33 M77.74 543.33 C57.49 543.33, 37.23 543.33, 25.91 543.33 M77.74 543.33 C66.5 543.33, 55.26 543.33, 25.91 543.33 M25.91 543.33 C8.64 543.33, 0 534.7, 0 517.42 M25.91 543.33 C8.64 543.33, 0 534.7, 0 517.42 M0 517.42 C0 330.1, 0 142.78, 0 25.91 M0 517.42 C0 388.39, 0 259.35, 0 25.91 M0 25.91 C0 8.64, 8.64 0, 25.91 0 M0 25.91 C0 8.64, 8.64 0, 25.91 0" stroke="#1e1e1e" stroke-width="2" fill="none"></path></g><g stroke-linecap="round" transform="translate(936.3099286276042 1705.2311669999992) rotate(0 25.429280186197843 76.66669209798192)"><path d="M12.71 0 C18.42 0, 24.12 0, 38.14 0 M12.71 0 C20.2 0, 27.69 0, 38.14 0 M38.14 0 C46.62 0, 50.86 4.24, 50.86 12.71 M38.14 0 C46.62 0, 50.86 4.24, 50.86 12.71 M50.86 12.71 C50.86 58.64, 50.86 104.57, 50.86 140.62 M50.86 12.71 C50.86 53.01, 50.86 93.3, 50.86 140.62 M50.86 140.62 C50.86 149.1, 46.62 153.33, 38.14 153.33 M50.86 140.62 C50.86 149.1, 46.62 153.33, 38.14 153.33 M38.14 153.33 C28.4 153.33, 18.65 153.33, 12.71 153.33 M38.14 153.33 C30.76 153.33, 23.38 153.33, 12.71 153.33 M12.71 153.33 C4.24 153.33, 0 149.1, 0 140.62 M12.71 153.33 C4.24 153.33, 0 149.1, 0 140.62 M0 140.62 C0 101.69, 0 62.77, 0 12.71 M0 140.62 C0 111.17, 0 81.71, 0 12.71 M0 12.71 C0 4.24, 4.24 0, 12.71 0 M0 12.71 C0 4.24, 4.24 0, 12.71 0" stroke="#1e1e1e" stroke-width="2" fill="none"></path></g><g stroke-linecap="round"><g transform="translate(937.288301111284 1713.0090289918364) rotate(0 24.444529215494754 30.55554707845056)"><path d="M0 0 C8.15 10.19, 40.74 50.93, 48.89 61.11 M0 0 C8.15 10.19, 40.74 50.93, 48.89 61.11" stroke="#1e1e1e" stroke-width="2" fill="none"></path></g></g><mask></mask><g stroke-linecap="round"><g transform="translate(939.5105914446176 1858.5645506389722) rotate(0 24.444478352864508 -29.44442749023449)"><path d="M0 0 C8.15 -9.81, 40.74 -49.07, 48.89 -58.89 M0 0 C8.15 -9.81, 40.74 -49.07, 48.89 -58.89" stroke="#1e1e1e" stroke-width="2" fill="none"></path></g></g><mask></mask><g transform="translate(948.5195632206592 1894.8176580999227) rotate(0 19.324462890625 23.613620872382967)"><text x="19.324462890625" y="0" font-family="Virgil, Segoe UI Emoji" font-size="37.78179339581273px" fill="#1e1e1e" text-anchor="middle" style="white-space: pre;" direction="ltr" dominant-baseline="text-before-edge">Ti</text></g><g transform="translate(454.9850774641491 2368.04834232517) rotate(0 51.3179931640625 22.5)"><text x="0" y="0" font-family="Virgil, Segoe UI Emoji" font-size="36px" fill="#1e1e1e" text-anchor="start" style="white-space: pre;" direction="ltr" dominant-baseline="text-before-edge">About</text></g><g transform="translate(217.0797940718969 2434.8180338154043) rotate(0 309.9857482910156 49.16667938232422)"><text x="0" y="0" font-family="Virgil, Segoe UI Emoji" font-size="26.222229003906214px" fill="#1e1e1e" text-anchor="start" style="white-space: pre;" direction="ltr" dominant-baseline="text-before-edge">Lorem ipsum dolor sit amet consectetur, adipis</text><text x="0" y="32.77778625488277" font-family="Virgil, Segoe UI Emoji" font-size="26.222229003906214px" fill="#1e1e1e" text-anchor="start" style="white-space: pre;" direction="ltr" dominant-baseline="text-before-edge">elit. Accusamus nobis consequuntur, provident </text><text x="0" y="65.55557250976554" font-family="Virgil, Segoe UI Emoji" font-size="26.222229003906214px" fill="#1e1e1e" text-anchor="start" style="white-space: pre;" direction="ltr" dominant-baseline="text-before-edge">Lorem ipsum dolor sit amet consectetur, adip ...</text></g></svg>